{"glyphs":{"0":{"ha":743,"x_min":42,"x_max":700,"o":"m 613 121 q 569 55 613 121 q 371 -11 525 -11 q 129 121 217 -11 q 42 486 42 253 q 129 851 42 719 q 371 983 217 983 q 613 851 525 983 q 700 486 700 719 q 613 121 700 253 m 250 486 q 250 319 250 486 q 371 151 250 151 q 492 486 492 151 q 371 821 492 821 q 250 486 250 821 z "},"1":{"ha":743,"x_min":51,"x_max":681,"o":"m 58 69 l 58 93 q 100 163 58 163 l 285 163 l 285 786 l 96 758 q 62 797 72 758 q 51 871 51 835 q 88 914 51 907 l 433 978 q 471 967 451 978 q 490 944 490 957 l 490 163 l 639 163 q 681 93 681 163 l 681 69 q 639 0 681 0 l 100 0 q 58 69 58 0 z "},"2":{"ha":743,"x_min":46,"x_max":679,"o":"m 85 0 q 58 44 71 0 q 46 112 46 88 q 50 143 46 136 l 401 574 q 454 700 454 639 q 418 790 454 761 q 334 819 382 819 q 251 804 286 819 q 194 774 217 789 q 163 760 171 760 q 108 793 132 760 q 83 856 83 826 q 168 949 83 914 q 360 983 253 983 q 583 908 503 983 q 663 711 663 833 q 578 485 663 589 l 317 163 l 638 163 q 679 93 679 163 l 679 69 q 638 0 679 0 l 85 0 z "},"3":{"ha":743,"x_min":50,"x_max":665,"o":"m 50 103 q 73 167 50 126 q 118 208 96 208 q 153 194 126 208 q 310 151 238 151 q 419 187 382 151 q 457 289 457 222 q 294 428 457 428 l 256 428 q 214 497 214 428 l 214 522 q 256 592 214 592 l 282 592 q 387 623 349 592 q 425 707 425 654 q 397 790 425 760 q 309 819 368 819 q 201 798 250 819 q 149 776 151 776 q 103 815 128 776 q 79 882 79 853 q 158 957 79 931 q 358 983 236 983 q 556 917 479 983 q 633 740 633 851 q 599 616 633 669 q 504 538 564 563 l 504 532 q 665 283 665 471 q 578 68 665 147 q 351 -11 492 -11 q 149 17 249 -11 q 50 103 50 46 z "},"4":{"ha":743,"x_min":15,"x_max":731,"o":"m 67 197 q 33 246 50 197 q 15 315 15 294 q 18 342 15 336 l 431 949 q 515 975 449 975 l 553 975 q 636 931 636 975 l 636 360 l 689 360 q 731 290 731 360 l 731 267 q 689 197 731 197 l 636 197 l 636 42 q 553 -3 636 -3 l 514 -3 q 431 42 431 -3 l 431 197 l 67 197 m 431 360 l 431 678 l 425 679 l 222 360 l 431 360 z "},"5":{"ha":743,"x_min":53,"x_max":681,"o":"m 53 89 q 79 155 53 111 q 128 199 106 199 q 158 186 132 199 q 315 151 238 151 q 432 190 392 151 q 472 299 472 228 q 432 410 472 371 q 299 449 392 449 l 147 449 q 107 461 118 449 q 96 504 96 474 l 122 917 q 138 959 125 946 q 181 972 151 972 l 590 972 q 632 903 632 972 l 632 865 q 590 810 632 810 l 310 810 l 296 611 l 332 611 q 591 540 501 611 q 681 300 681 469 q 649 153 681 215 q 565 56 618 90 q 336 -11 464 -11 q 131 18 208 -11 q 53 89 53 47 z "},"6":{"ha":743,"x_min":46,"x_max":700,"o":"m 46 351 q 96 620 46 501 q 213 803 146 739 q 357 910 281 868 q 478 965 433 953 q 538 978 524 978 q 588 935 568 978 q 607 870 607 893 q 603 842 607 847 q 589 833 600 836 q 336 657 425 785 q 288 560 306 613 q 410 594 351 594 q 513 579 469 594 q 601 532 557 564 q 672 440 644 500 q 700 299 700 379 q 672 157 700 219 q 594 58 643 94 q 374 -11 500 -11 q 151 69 246 -11 q 74 183 103 110 q 46 351 46 256 m 375 151 q 459 192 425 151 q 493 295 493 232 q 460 395 493 358 q 372 432 426 432 q 257 399 317 432 q 256 335 256 378 q 375 151 256 151 z "},"7":{"ha":743,"x_min":53,"x_max":686,"o":"m 104 24 q 113 50 104 33 l 457 810 l 94 810 q 53 879 53 810 l 53 903 q 94 972 53 972 l 644 972 q 671 926 656 972 q 686 859 686 881 q 683 829 686 838 l 318 25 q 238 -3 306 -3 l 186 -3 q 104 24 104 -3 z "},"8":{"ha":743,"x_min":40,"x_max":703,"o":"m 40 279 q 80 435 40 372 q 181 521 119 497 q 78 721 78 590 q 157 907 78 831 q 375 983 236 983 q 592 913 514 983 q 671 751 671 843 q 640 613 671 660 q 550 535 608 567 q 703 267 703 465 q 629 81 703 163 q 526 14 592 39 q 376 -11 461 -11 q 124 72 208 -11 q 40 279 40 154 m 471 728 q 443 795 471 769 q 376 821 415 821 q 308 796 336 821 q 281 725 281 771 q 310 651 281 679 q 396 600 339 624 q 471 728 471 650 m 247 292 q 281 190 247 228 q 372 151 314 151 q 463 190 431 151 q 494 273 494 229 q 482 346 494 317 q 442 394 469 375 q 324 453 396 428 q 247 292 247 397 z "},"9":{"ha":743,"x_min":40,"x_max":694,"o":"m 203 -7 q 153 35 172 -7 q 133 101 133 78 q 137 129 133 124 q 151 138 140 135 q 404 314 315 186 q 453 411 435 358 q 330 376 389 376 q 227 392 271 376 q 140 439 183 407 q 68 531 96 471 q 40 672 40 592 q 69 814 40 751 q 144 911 97 876 q 367 982 240 982 q 589 903 494 982 q 666 788 638 861 q 694 619 694 715 q 644 351 694 469 q 527 167 594 232 q 383 60 460 103 q 262 6 307 18 q 203 -7 217 -7 m 247 676 q 247 644 247 676 q 281 576 247 613 q 369 539 314 539 q 483 572 424 539 q 485 636 485 593 q 365 819 485 819 q 281 779 315 819 q 247 676 247 739 z "}," ":{"ha":333,"x_min":0,"x_max":0,"o":""},"!":{"ha":408,"x_min":103,"x_max":357,"o":"m 201 308 q 146 319 161 308 q 131 353 131 329 l 131 931 q 214 975 131 975 l 274 975 q 357 936 357 975 q 288 353 357 926 q 271 319 285 329 q 217 308 257 308 l 201 308 m 103 42 l 103 169 q 186 214 103 214 l 231 214 q 314 169 314 214 l 314 42 q 231 -3 314 -3 l 186 -3 q 103 42 103 -3 z "},"\"":{"ha":443,"x_min":26,"x_max":417,"o":"m 314 644 q 267 686 272 644 l 236 924 l 236 931 q 319 975 236 975 l 333 975 q 417 931 417 975 l 386 686 q 339 644 381 644 l 314 644 m 104 644 q 57 686 63 644 l 26 924 l 26 931 q 110 975 26 975 l 124 975 q 207 931 207 975 l 176 686 q 129 644 171 644 l 104 644 z "},"#":{"ha":742,"x_min":11,"x_max":729,"o":"m 71 29 q 72 40 71 36 l 113 254 l 53 254 q 11 324 11 254 l 11 338 q 53 407 11 407 l 140 407 l 169 560 l 103 560 q 61 629 61 560 l 61 643 q 103 713 61 713 l 197 713 l 233 910 q 311 953 242 953 l 329 953 q 392 922 392 953 q 390 910 392 914 l 354 713 l 485 713 l 521 910 q 599 953 529 953 l 617 953 q 679 922 679 953 q 678 910 679 914 l 642 713 l 688 713 q 729 643 729 713 l 729 629 q 688 560 729 560 l 614 560 l 585 407 l 643 407 q 685 338 685 407 l 685 324 q 643 254 685 254 l 557 254 l 517 40 q 440 -3 508 -3 l 422 -3 q 358 29 358 -3 q 360 40 358 36 l 400 254 l 269 254 l 229 40 q 153 -3 221 -3 l 135 -3 q 71 29 71 -3 m 297 407 l 428 407 l 457 560 l 326 560 l 297 407 z "},"$":{"ha":689,"x_min":26,"x_max":667,"o":"m 26 111 q 58 189 26 143 q 113 235 90 235 q 150 219 121 235 q 317 171 235 171 l 324 171 l 324 400 q 245 430 271 419 q 174 467 219 440 q 106 522 129 494 q 65 595 83 549 q 46 699 46 642 q 125 897 46 826 q 324 981 204 968 l 324 1025 q 361 1067 324 1067 q 403 1025 403 1067 l 403 982 q 562 949 499 978 q 625 888 625 919 q 599 810 625 856 q 549 765 572 765 q 501 782 547 765 q 403 800 456 799 l 403 589 q 478 556 456 565 q 544 517 500 546 q 610 463 589 489 q 649 394 631 438 q 667 297 667 350 q 592 79 667 154 q 403 -8 517 4 l 403 -71 q 365 -112 403 -112 q 324 -71 324 -112 l 324 -10 q 108 33 190 -6 q 26 111 26 72 m 324 792 q 251 719 251 774 q 324 625 251 665 l 324 792 m 403 186 q 463 269 463 211 q 403 363 463 328 l 403 186 z "},"%":{"ha":1063,"x_min":63,"x_max":1017,"o":"m 479 750 q 479 633 479 750 q 271 517 479 517 q 63 750 63 517 q 271 983 63 983 q 479 750 479 983 m 213 15 q 219 36 213 22 l 715 936 q 776 975 738 975 l 838 975 q 867 956 867 975 q 860 936 867 950 l 364 36 q 303 -3 342 -3 l 242 -3 q 213 15 213 -3 m 204 747 q 204 689 204 747 q 270 631 204 631 q 336 747 336 631 q 270 864 336 864 q 204 747 204 864 m 808 -11 q 704 -11 808 -11 q 600 222 600 -11 q 808 456 600 456 q 1017 222 1017 456 q 808 -11 1017 -11 m 808 336 q 775 336 808 336 q 742 219 742 336 q 808 103 742 103 q 874 219 874 103 q 808 336 874 336 z "},"&":{"ha":867,"x_min":32,"x_max":882,"o":"m 801 151 l 839 157 q 869 116 857 157 q 882 57 882 75 q 749 -11 882 -11 q 597 44 649 -11 q 346 -11 486 -11 q 119 68 206 -11 q 32 283 32 147 q 193 532 32 471 l 193 538 q 99 616 133 563 q 64 740 64 669 q 141 917 64 851 q 360 983 218 983 q 501 925 501 983 q 486 844 501 876 q 453 811 471 811 l 428 817 q 385 821 404 821 q 301 790 329 821 q 272 707 272 760 q 310 623 272 654 q 415 592 349 592 l 546 592 l 564 724 q 639 768 571 768 l 682 768 q 751 724 751 768 l 751 592 l 819 592 q 861 522 861 592 l 861 499 q 819 429 861 429 l 751 429 l 751 211 q 801 151 751 151 m 240 286 q 278 187 240 222 q 388 151 315 151 q 546 189 460 151 l 546 429 l 403 429 q 240 286 240 429 z "},"'":{"ha":254,"x_min":42,"x_max":222,"o":"m 119 644 q 72 686 78 644 l 42 924 l 42 931 q 125 975 42 975 l 139 975 q 222 931 222 975 l 192 686 q 144 644 186 644 l 119 644 z "},"(":{"ha":418,"x_min":71,"x_max":396,"o":"m 279 -267 q 71 399 71 32 q 279 1065 71 767 q 317 1088 296 1088 q 367 1067 339 1088 q 396 1027 396 1046 q 389 996 396 1008 q 269 699 306 840 q 233 399 233 557 q 269 99 233 240 q 389 -197 306 -42 q 396 -228 396 -210 q 367 -268 396 -247 q 317 -289 339 -289 q 279 -267 296 -289 z "},")":{"ha":418,"x_min":18,"x_max":343,"o":"m 144 99 q 163 170 144 99 q 181 399 181 240 q 144 699 181 557 q 25 996 108 840 q 18 1027 18 1008 q 47 1067 18 1046 q 97 1088 75 1088 q 135 1065 118 1088 q 343 399 343 767 q 135 -267 343 32 q 97 -289 118 -289 q 47 -268 75 -289 q 18 -228 18 -247 q 25 -197 18 -210 q 144 99 108 -42 z "},"*":{"ha":518,"x_min":46,"x_max":457,"o":"m 169 592 q 138 571 154 571 q 106 585 122 571 q 90 612 90 599 q 103 639 90 625 l 181 749 l 76 782 q 46 814 46 792 q 50 836 46 826 q 85 865 58 865 q 104 863 90 865 l 211 828 l 211 942 q 253 983 211 983 q 294 942 294 983 l 294 828 l 399 863 q 422 865 413 865 q 444 851 432 865 q 457 815 457 838 q 426 782 457 792 l 321 749 l 400 639 q 411 613 411 626 q 395 585 411 599 q 364 571 379 571 q 333 592 349 571 l 251 707 l 169 592 z "},"+":{"ha":778,"x_min":57,"x_max":721,"o":"m 99 253 q 57 322 57 253 l 57 332 q 99 401 57 401 l 308 401 l 308 615 q 378 657 308 657 l 397 657 q 467 615 467 657 l 467 401 l 679 401 q 721 332 721 401 l 721 322 q 679 253 721 253 l 467 253 l 467 42 q 397 0 467 0 l 378 0 q 308 42 308 0 l 308 253 l 99 253 z "},",":{"ha":275,"x_min":-12,"x_max":242,"o":"m 54 -174 q 41 -174 54 -174 q 8 -166 28 -174 q -12 -144 -12 -158 q 3 -94 -12 -129 q 49 153 49 13 q 132 214 49 214 l 158 214 q 242 153 242 214 q 206 1 242 79 q 126 -126 171 -78 q 54 -174 81 -174 z "},"-":{"ha":444,"x_min":39,"x_max":406,"o":"m 81 294 q 39 364 39 294 l 39 374 q 81 443 39 443 l 364 443 q 406 374 406 443 l 406 364 q 364 294 406 294 l 81 294 z "},".":{"ha":275,"x_min":31,"x_max":242,"o":"m 31 42 l 31 169 q 114 214 31 214 l 158 214 q 242 169 242 214 l 242 42 q 158 -3 242 -3 l 114 -3 q 31 42 31 -3 z "},"/":{"ha":514,"x_min":-42,"x_max":544,"o":"m 453 975 l 486 975 q 544 953 544 975 q 540 933 544 946 l 136 -68 q 51 -110 119 -110 l 18 -110 q -42 -87 -42 -110 q -36 -68 -42 -85 l 368 933 q 453 975 385 975 z "},":":{"ha":275,"x_min":31,"x_max":242,"o":"m 114 513 q 31 557 31 513 l 31 685 q 114 729 31 729 l 158 729 q 242 685 242 729 l 242 557 q 158 513 242 513 l 114 513 m 31 42 l 31 169 q 114 214 31 214 l 158 214 q 242 169 242 214 l 242 42 q 158 -3 242 -3 l 114 -3 q 31 42 31 -3 z "},";":{"ha":275,"x_min":-14,"x_max":242,"o":"m 114 513 q 31 557 31 513 l 31 685 q 114 729 31 729 l 158 729 q 242 685 242 729 l 242 557 q 158 513 242 513 l 114 513 m 53 -174 q 40 -174 53 -174 q 6 -166 26 -174 q -14 -144 -14 -158 q 1 -94 -14 -129 q 47 153 47 13 q 131 214 47 214 l 157 214 q 240 153 240 214 q 205 1 240 79 q 124 -126 169 -78 q 53 -174 79 -174 z "},"<":{"ha":778,"x_min":53,"x_max":717,"o":"m 53 328 l 53 354 q 92 413 53 394 l 674 661 q 694 665 686 665 q 715 608 715 665 l 715 586 q 674 501 715 518 l 268 340 l 675 179 q 717 94 717 163 l 717 72 q 696 14 717 14 q 675 19 686 14 l 92 269 q 53 328 53 285 z "},"=":{"ha":778,"x_min":57,"x_max":721,"o":"m 99 371 q 57 440 57 371 l 57 450 q 99 519 57 519 l 679 519 q 721 450 721 519 l 721 440 q 679 371 721 371 l 99 371 m 99 119 q 57 189 57 119 l 57 199 q 99 268 57 268 l 679 268 q 721 199 721 268 l 721 189 q 679 119 721 119 l 99 119 z "},">":{"ha":778,"x_min":53,"x_max":717,"o":"m 74 14 q 53 72 53 14 l 53 94 q 94 179 53 163 l 501 340 l 96 501 q 54 586 54 518 l 54 608 q 75 665 54 665 q 96 661 83 665 l 678 413 q 717 354 717 394 l 717 328 q 678 269 717 285 l 94 19 q 74 14 83 14 z "},"?":{"ha":618,"x_min":44,"x_max":607,"o":"m 175 349 q 251 532 175 442 q 314 603 283 569 q 390 722 390 686 q 288 800 390 800 q 186 778 239 800 q 132 757 133 757 q 75 801 106 757 q 44 871 44 846 q 126 955 44 926 q 306 983 208 983 q 526 917 446 983 q 607 736 607 850 q 522 544 607 625 q 450 481 488 510 q 349 346 361 410 q 326 317 343 325 q 275 308 310 308 l 243 308 q 175 349 175 308 m 153 42 l 153 169 q 236 214 153 214 l 281 214 q 364 169 364 214 l 364 42 q 281 -3 364 -3 l 236 -3 q 153 42 153 -3 z "},"@":{"ha":1353,"x_min":117,"x_max":1204,"o":"m 931 663 l 888 246 q 936 196 888 196 q 1062 296 1008 196 q 1115 532 1115 396 q 1013 805 1115 701 q 742 908 910 908 q 361 742 517 908 q 206 333 206 575 q 306 23 206 142 q 569 -96 407 -96 q 715 -76 650 -96 q 783 -56 779 -56 q 803 -101 803 -56 q 724 -154 803 -137 q 569 -171 646 -171 q 242 -31 368 -171 q 117 333 117 108 q 297 795 117 607 q 742 983 478 983 q 1078 860 951 983 q 1204 540 1204 736 q 1110 212 1204 343 q 887 81 1017 81 q 722 169 757 81 q 565 81 669 81 q 428 146 479 81 q 378 332 378 211 q 449 602 378 499 q 635 706 521 706 q 776 643 714 706 q 799 687 785 675 q 849 699 813 699 l 865 699 q 931 663 931 699 m 675 569 q 584 511 617 569 q 551 337 551 453 q 631 221 551 221 q 721 288 678 221 l 739 469 l 750 538 q 675 569 715 569 z "},"A":{"ha":851,"x_min":0,"x_max":851,"o":"m 0 28 q 6 53 0 33 l 311 946 q 390 975 322 975 l 463 975 q 542 946 531 975 l 847 53 q 851 28 851 39 q 782 -3 851 -3 l 721 -3 q 643 26 653 -3 l 588 196 l 260 196 l 204 26 q 140 -3 194 -3 l 85 -3 q 0 28 0 -3 m 319 379 l 528 379 l 449 626 l 428 715 l 422 715 q 401 626 410 650 l 319 379 z "},"B":{"ha":824,"x_min":96,"x_max":793,"o":"m 96 56 l 96 917 q 151 972 96 972 l 426 972 q 675 907 596 972 q 754 726 754 842 q 712 599 754 657 q 604 515 669 542 l 606 510 q 740 428 688 493 q 793 282 793 363 q 706 73 793 146 q 446 0 619 0 l 151 0 q 96 56 96 0 m 310 585 l 406 585 q 501 614 467 585 q 535 689 535 643 q 408 792 535 792 l 310 792 l 310 585 m 310 182 l 446 182 q 540 211 507 182 q 574 294 574 240 q 424 403 574 403 l 310 403 l 310 182 z "},"C":{"ha":860,"x_min":63,"x_max":829,"o":"m 63 489 q 526 983 63 983 q 722 956 628 983 q 817 886 817 928 q 784 806 817 856 q 726 756 751 756 q 697 767 722 756 q 522 800 625 800 q 282 485 282 800 q 519 171 282 171 q 711 213 619 171 q 747 226 742 226 q 803 178 776 226 q 829 106 829 131 q 726 19 829 50 q 519 -11 624 -11 q 174 110 286 -11 q 63 489 63 232 z "},"D":{"ha":965,"x_min":96,"x_max":907,"o":"m 96 56 l 96 917 q 151 972 96 972 l 463 972 q 792 847 678 972 q 907 486 907 721 q 792 126 907 251 q 463 0 678 0 l 151 0 q 96 56 96 0 m 311 182 l 463 182 q 631 260 574 182 q 688 486 688 338 q 631 713 688 635 q 463 790 574 790 l 311 790 l 311 182 z "},"E":{"ha":758,"x_min":96,"x_max":703,"o":"m 96 56 l 96 917 q 151 972 96 972 l 660 972 q 701 903 701 972 l 701 860 q 660 790 701 790 l 310 790 l 310 589 l 622 589 q 664 519 664 589 l 664 476 q 622 407 664 407 l 310 407 l 310 182 l 661 182 q 703 113 703 182 l 703 69 q 661 0 703 0 l 151 0 q 96 56 96 0 z "},"F":{"ha":699,"x_min":96,"x_max":657,"o":"m 96 42 l 96 917 q 151 972 96 972 l 615 972 q 657 903 657 972 l 657 860 q 615 790 657 790 l 310 790 l 310 588 l 606 588 q 647 518 647 588 l 647 475 q 606 406 647 406 l 310 406 l 310 42 q 226 -3 310 -3 l 179 -3 q 96 42 96 -3 z "},"G":{"ha":933,"x_min":63,"x_max":843,"o":"m 63 489 q 526 983 63 983 q 726 955 628 983 q 824 886 824 926 q 791 806 824 856 q 733 756 758 756 q 703 767 729 756 q 522 800 626 800 q 282 485 282 800 q 519 171 282 171 q 628 181 575 171 l 628 357 l 506 357 q 464 426 464 357 l 464 471 q 506 540 464 540 l 788 540 q 843 485 843 540 l 843 99 q 808 42 843 65 q 717 8 772 18 q 519 -11 617 -11 q 174 110 286 -11 q 63 489 63 232 z "},"H":{"ha":1018,"x_min":117,"x_max":922,"o":"m 117 42 l 117 931 q 200 975 117 975 l 249 975 q 332 931 332 975 l 332 588 l 707 588 l 707 931 q 790 975 707 975 l 839 975 q 922 931 922 975 l 922 42 q 839 -3 922 -3 l 790 -3 q 707 42 707 -3 l 707 404 l 332 404 l 332 42 q 249 -3 332 -3 l 200 -3 q 117 42 117 -3 z "},"I":{"ha":392,"x_min":88,"x_max":303,"o":"m 88 42 l 88 931 q 171 976 88 976 l 219 976 q 303 931 303 976 l 303 42 q 219 -4 303 -4 l 171 -4 q 88 42 88 -4 z "},"J":{"ha":558,"x_min":0,"x_max":467,"o":"m 87 -3 q 64 0 87 -3 q 21 18 42 4 q 0 58 0 32 q 15 132 0 85 q 57 182 29 179 q 84 176 60 182 q 135 171 108 171 q 224 205 197 171 q 251 315 251 239 l 251 931 q 335 976 251 976 l 383 976 q 467 931 467 976 l 467 281 q 394 66 467 143 q 172 -11 322 -11 q 87 -3 132 -11 z "},"K":{"ha":800,"x_min":96,"x_max":821,"o":"m 96 42 l 96 931 q 179 975 96 975 l 228 975 q 311 931 311 975 l 311 558 l 317 557 l 558 949 q 642 975 574 975 l 707 975 q 785 954 785 975 q 774 925 785 942 l 506 514 l 810 47 q 821 18 821 31 q 743 -3 821 -3 l 663 -3 q 578 24 593 -3 l 317 446 l 311 444 l 311 42 q 228 -3 311 -3 l 179 -3 q 96 42 96 -3 z "},"L":{"ha":672,"x_min":96,"x_max":661,"o":"m 96 56 l 96 931 q 179 975 96 975 l 226 975 q 310 931 310 975 l 310 182 l 619 182 q 661 113 661 182 l 661 69 q 619 0 661 0 l 151 0 q 96 56 96 0 z "},"M":{"ha":1171,"x_min":96,"x_max":1075,"o":"m 96 42 l 96 931 q 179 975 96 975 l 253 975 q 340 938 319 975 l 585 503 l 832 938 q 919 975 853 975 l 992 975 q 1075 931 1075 975 l 1075 42 q 992 -3 1075 -3 l 951 -3 q 868 42 868 -3 l 868 617 l 863 618 l 661 258 q 606 232 642 232 l 565 232 q 510 258 529 232 l 308 618 l 303 617 l 303 42 q 219 -3 303 -3 l 179 -3 q 96 42 96 -3 z "},"N":{"ha":999,"x_min":96,"x_max":903,"o":"m 96 42 l 96 931 q 179 975 96 975 l 239 975 q 331 938 306 975 l 696 375 l 696 931 q 779 975 696 975 l 819 975 q 903 931 903 975 l 903 42 q 819 -3 903 -3 l 767 -3 q 675 35 700 -3 l 303 604 l 303 42 q 219 -3 303 -3 l 179 -3 q 96 42 96 -3 z "},"O":{"ha":1015,"x_min":63,"x_max":953,"o":"m 178 117 q 120 182 178 117 q 63 486 63 246 q 178 855 63 726 q 508 983 293 983 q 838 855 724 983 q 953 486 953 726 q 838 117 953 246 q 508 -11 724 -11 q 178 117 293 -11 m 340 251 q 368 211 340 251 q 508 171 397 171 q 676 251 619 171 q 733 486 733 332 q 676 720 733 640 q 508 800 619 800 q 340 720 397 800 q 282 486 282 640 q 340 251 282 332 z "},"P":{"ha":792,"x_min":96,"x_max":774,"o":"m 96 42 l 96 917 q 151 972 96 972 l 443 972 q 694 892 606 972 q 751 802 728 860 q 774 668 774 744 q 747 534 774 592 q 684 445 721 476 q 600 394 647 414 q 457 364 526 364 l 310 364 l 310 42 q 226 -3 310 -3 l 179 -3 q 96 42 96 -3 m 310 547 l 433 547 q 519 574 483 547 q 554 668 554 600 q 519 763 554 736 q 433 790 483 790 l 310 790 l 310 547 z "},"Q":{"ha":1015,"x_min":63,"x_max":967,"o":"m 63 486 q 178 855 63 726 q 508 983 293 983 q 838 855 724 983 q 953 486 953 726 q 735 43 953 156 l 735 38 l 947 -39 q 967 -67 967 -46 q 943 -146 967 -89 q 890 -203 919 -203 q 699 -130 882 -203 q 315 22 517 -57 q 127 189 192 71 q 63 486 63 307 m 340 247 q 368 206 340 247 q 508 165 397 165 q 676 247 619 165 q 733 485 733 329 q 676 720 733 640 q 508 800 619 800 q 340 720 397 800 q 282 485 282 640 q 340 247 282 329 z "},"R":{"ha":847,"x_min":96,"x_max":835,"o":"m 96 42 l 96 917 q 151 972 96 972 l 422 972 q 768 711 768 972 q 724 576 768 633 q 606 490 681 518 l 606 485 q 660 438 632 475 q 706 357 688 401 l 828 51 q 835 25 835 33 q 751 -3 835 -3 l 694 -3 q 614 26 625 -3 l 504 297 q 453 362 481 343 q 364 381 426 381 l 310 381 l 310 42 q 226 -3 310 -3 l 179 -3 q 96 42 96 -3 m 310 565 l 442 565 q 517 600 485 565 q 549 684 549 635 q 517 762 549 733 q 432 790 486 790 l 310 790 l 310 565 z "},"S":{"ha":694,"x_min":31,"x_max":671,"o":"m 31 111 q 63 189 31 143 q 117 235 94 235 q 153 219 125 235 q 321 171 239 171 q 451 272 451 171 q 410 347 451 317 q 309 401 368 378 q 192 453 250 424 q 92 546 133 483 q 50 702 50 608 q 100 863 50 796 q 379 983 190 983 q 557 953 485 983 q 629 886 629 922 q 603 810 629 856 q 553 765 576 765 q 528 775 547 765 q 399 800 472 800 q 298 775 326 800 q 269 713 269 750 q 311 646 269 675 q 411 594 353 617 q 528 542 469 572 q 629 450 588 513 q 671 301 671 388 q 644 152 671 214 q 569 56 617 90 q 344 -11 478 -11 q 121 29 211 -11 q 31 111 31 69 z "},"T":{"ha":763,"x_min":11,"x_max":751,"o":"m 274 42 l 274 790 l 53 790 q 11 860 11 790 l 11 903 q 53 972 11 972 l 710 972 q 751 903 751 972 l 751 860 q 710 790 751 790 l 489 790 l 489 42 q 406 -3 489 -3 l 357 -3 q 274 42 274 -3 z "},"U":{"ha":989,"x_min":92,"x_max":897,"o":"m 92 325 l 92 931 q 175 975 92 975 l 222 975 q 306 931 306 975 l 306 339 q 358 218 306 265 q 494 171 411 171 q 631 218 578 171 q 685 339 685 265 l 685 931 q 768 975 685 975 l 814 975 q 897 931 897 975 l 897 325 q 792 77 897 165 q 494 -11 686 -11 q 197 77 303 -11 q 92 325 92 165 z "},"V":{"ha":857,"x_min":7,"x_max":844,"o":"m 7 944 q 92 975 7 975 l 138 975 q 219 935 207 975 l 422 285 l 428 285 l 636 935 q 718 975 650 975 l 761 975 q 844 944 844 975 q 840 919 844 933 l 540 26 q 463 -3 531 -3 l 390 -3 q 313 26 322 -3 l 13 919 q 7 944 7 939 z "},"W":{"ha":1225,"x_min":-6,"x_max":1231,"o":"m -6 939 q 81 975 -6 975 l 117 975 q 210 932 200 975 l 314 485 q 357 285 317 475 q 404 485 365 340 l 518 946 q 594 975 525 975 l 647 975 q 724 946 717 975 l 833 485 q 881 275 857 383 q 906 388 890 315 q 928 485 922 461 l 1036 932 q 1129 975 1046 975 l 1144 975 q 1231 939 1231 975 q 1228 918 1231 935 l 1001 26 q 925 -3 993 -3 l 824 -3 q 747 26 753 -3 l 611 601 l 469 26 q 393 -3 461 -3 l 293 -3 q 217 26 222 -3 l -3 918 q -6 939 -6 926 z "},"X":{"ha":849,"x_min":11,"x_max":838,"o":"m 11 24 q 25 58 11 36 l 311 507 l 57 914 q 43 949 43 938 q 132 975 43 975 l 189 975 q 272 949 257 975 l 431 690 l 597 949 q 682 975 614 975 l 736 975 q 824 949 824 975 q 810 914 824 933 l 547 504 l 825 58 q 838 24 838 38 q 750 -3 838 -3 l 696 -3 q 613 24 628 -3 l 428 322 l 236 24 q 151 -3 218 -3 l 99 -3 q 11 24 11 -3 z "},"Y":{"ha":776,"x_min":-8,"x_max":785,"o":"m 282 42 l 282 467 l 6 913 q -8 947 -8 936 q 81 975 -8 975 l 140 975 q 224 949 208 975 l 393 651 l 564 949 q 647 975 579 975 l 697 975 q 785 947 785 975 q 772 913 785 933 l 496 463 l 496 42 q 413 -3 496 -3 l 365 -3 q 282 42 282 -3 z "},"Z":{"ha":856,"x_min":38,"x_max":806,"o":"m 92 0 q 56 47 75 0 q 38 113 38 93 q 40 138 38 132 l 506 790 l 119 790 q 78 860 78 790 l 78 903 q 119 972 78 972 l 754 972 q 788 924 769 972 q 806 856 806 875 q 804 833 806 836 l 340 182 l 764 182 q 806 113 806 182 l 806 69 q 764 0 806 0 l 92 0 z "},"[":{"ha":404,"x_min":90,"x_max":363,"o":"m 90 -136 l 90 1011 q 146 1067 90 1067 l 321 1067 q 363 1011 363 1067 l 363 990 q 321 935 363 935 l 250 935 l 250 -60 l 321 -60 q 363 -115 363 -60 l 363 -136 q 321 -192 363 -192 l 146 -192 q 90 -136 90 -192 z "},"\\":{"ha":501,"x_min":3,"x_max":503,"o":"m 3 951 q 63 975 3 975 l 94 975 q 178 933 164 975 l 499 11 q 503 -8 503 0 q 443 -31 503 -31 l 410 -31 q 326 11 340 -31 l 7 933 q 3 951 3 944 z "},"]":{"ha":404,"x_min":43,"x_max":315,"o":"m 85 -60 l 156 -60 l 156 935 l 85 935 q 43 990 43 935 l 43 1011 q 85 1067 43 1067 l 260 1067 q 315 1011 315 1067 l 315 -136 q 260 -192 315 -192 l 85 -192 q 43 -136 43 -192 l 43 -115 q 85 -60 43 -60 z "},"^":{"ha":625,"x_min":49,"x_max":578,"o":"m 93 442 q 49 463 49 442 q 54 483 49 472 l 233 911 q 292 953 250 953 l 335 953 q 393 911 375 953 l 572 483 q 578 463 578 472 q 533 442 578 442 l 504 442 q 432 483 450 442 l 313 771 l 193 483 q 122 442 175 442 l 93 442 z "},"_":{"ha":742,"x_min":-28,"x_max":771,"o":"m 14 -50 l 729 -50 q 771 -119 771 -50 l 771 -129 q 729 -199 771 -199 l 14 -199 q -28 -129 -28 -199 l -28 -119 q 14 -50 -28 -50 z "},"`":{"ha":444,"x_min":75,"x_max":367,"o":"m 324 826 q 215 867 251 826 q 134 953 178 907 q 83 1010 90 1000 q 75 1028 75 1019 q 165 1047 75 1047 q 276 1010 256 1047 q 310 951 293 981 q 336 908 326 922 q 353 879 346 893 q 367 847 367 856 q 324 826 367 826 z "},"a":{"ha":757,"x_min":58,"x_max":679,"o":"m 58 192 q 65 263 58 231 q 97 331 72 294 q 164 392 122 368 q 457 450 263 450 l 457 496 q 349 575 457 575 q 200 542 272 575 q 171 531 175 531 q 124 574 150 531 q 99 642 99 617 q 176 708 99 679 q 364 738 253 738 q 663 506 663 738 l 663 244 q 671 100 663 158 l 679 43 q 623 10 679 21 q 539 -1 567 -1 q 502 4 511 -1 q 488 23 493 10 q 479 44 482 36 q 473 71 476 51 q 468 94 469 90 q 382 19 443 50 q 264 -11 321 -11 q 108 44 157 -11 q 58 192 58 100 m 263 213 q 281 168 263 185 q 335 151 299 151 q 406 176 371 151 q 457 239 440 201 l 457 315 q 263 213 263 315 z "},"b":{"ha":790,"x_min":92,"x_max":732,"o":"m 92 42 l 92 1003 q 175 1047 92 1047 l 214 1047 q 297 1003 297 1047 l 297 694 q 439 738 357 738 q 655 637 578 738 q 732 362 732 536 q 660 88 732 188 q 472 -11 588 -11 q 360 18 410 -11 q 286 93 311 47 l 272 33 q 192 -3 264 -3 l 175 -3 q 92 42 92 -3 m 411 157 q 524 366 524 157 q 394 575 524 575 q 297 549 344 575 l 297 239 q 411 157 344 157 z "},"c":{"ha":674,"x_min":58,"x_max":651,"o":"m 408 -11 q 144 80 231 -11 q 58 359 58 171 q 145 642 58 547 q 415 738 232 738 q 573 712 500 738 q 646 642 646 686 q 617 578 646 621 q 572 535 589 535 q 547 544 567 535 q 415 575 486 575 q 307 524 344 575 q 269 364 269 472 q 305 203 269 256 q 413 151 340 151 q 554 183 486 151 q 579 192 576 192 q 626 151 600 192 q 651 85 651 110 q 621 39 651 60 q 547 8 590 18 q 408 -11 458 -11 z "},"d":{"ha":785,"x_min":58,"x_max":715,"o":"m 318 -11 q 131 88 203 -11 q 58 362 58 188 q 135 637 58 536 q 351 738 213 738 q 493 694 433 738 l 493 1003 q 576 1047 493 1047 l 615 1047 q 699 1003 699 1047 l 699 244 q 707 100 699 158 l 715 43 q 659 10 715 21 q 575 -1 603 -1 q 538 4 547 -1 q 524 22 529 10 q 515 43 518 35 q 509 70 513 51 q 504 93 506 89 q 430 18 479 47 q 318 -11 381 -11 m 379 157 q 493 239 446 157 l 493 549 q 396 575 446 575 q 267 366 267 575 q 379 157 267 157 z "},"e":{"ha":749,"x_min":58,"x_max":696,"o":"m 421 -11 q 148 87 238 -11 q 58 369 58 185 q 148 646 58 554 q 394 738 238 738 q 623 638 550 738 q 696 379 696 538 q 667 330 696 363 q 625 297 639 297 l 271 297 q 318 185 278 218 q 421 151 358 151 q 540 173 483 151 q 599 194 597 194 q 645 153 619 194 q 671 89 671 113 q 584 16 671 43 q 421 -11 497 -11 m 496 435 q 471 537 496 499 q 396 575 446 575 q 271 435 293 575 l 496 435 z "},"f":{"ha":451,"x_min":43,"x_max":451,"o":"m 408 888 l 365 893 q 315 833 315 893 l 315 726 l 385 726 q 426 657 426 726 l 426 633 q 385 564 426 564 l 315 564 l 315 42 q 232 -3 315 -3 l 193 -3 q 110 42 110 -3 l 110 564 l 85 564 q 43 633 43 564 l 43 657 q 85 726 43 726 l 110 726 l 110 831 q 313 1056 110 1056 q 451 988 451 1056 q 439 928 451 969 q 408 888 426 888 z "},"g":{"ha":758,"x_min":33,"x_max":743,"o":"m 33 -103 q 160 58 33 10 l 161 64 q 101 167 101 94 q 185 283 101 239 q 72 481 72 346 q 155 677 72 617 q 371 738 238 738 q 478 726 425 738 l 701 726 q 743 657 743 726 l 743 633 q 709 568 743 568 q 650 574 675 568 l 647 568 q 669 490 669 539 q 591 306 669 367 q 386 244 513 244 q 301 207 301 244 q 411 157 301 167 q 614 111 521 147 q 691 49 660 93 q 722 -58 722 6 q 624 -230 722 -165 q 364 -294 525 -294 q 33 -103 33 -294 m 296 417 q 310 405 296 417 q 371 393 325 393 q 446 417 417 393 q 475 491 475 442 q 446 565 475 540 q 371 589 417 589 q 296 565 325 589 q 267 491 267 540 q 296 417 267 442 m 233 -69 q 378 -132 233 -132 q 522 -64 522 -132 q 476 -17 522 -32 q 308 6 429 -3 q 233 -69 233 -21 z "},"h":{"ha":785,"x_min":92,"x_max":703,"o":"m 92 42 l 92 1003 q 175 1047 92 1047 l 214 1047 q 297 1003 297 1047 l 297 643 q 493 738 376 738 q 703 513 703 738 l 703 42 q 619 -3 703 -3 l 581 -3 q 497 42 497 -3 l 497 482 q 408 568 497 568 q 297 488 339 568 l 297 42 q 214 -3 297 -3 l 175 -3 q 92 42 92 -3 z "},"i":{"ha":368,"x_min":82,"x_max":288,"o":"m 165 846 q 82 890 82 846 l 82 1003 q 165 1047 82 1047 l 204 1047 q 288 1003 288 1047 l 288 890 q 204 846 288 846 l 165 846 m 82 42 l 82 685 q 165 729 82 729 l 204 729 q 288 685 288 729 l 288 42 q 204 -3 288 -3 l 165 -3 q 82 42 82 -3 z "},"j":{"ha":383,"x_min":-44,"x_max":303,"o":"m 181 846 q 97 890 97 846 l 97 1003 q 181 1047 97 1047 l 219 1047 q 303 1003 303 1047 l 303 890 q 219 846 303 846 l 181 846 m 6 -126 l 47 -132 q 97 -72 97 -132 l 97 685 q 181 729 97 729 l 219 729 q 303 685 303 729 l 303 -69 q 247 -237 303 -179 q 104 -294 190 -294 q -13 -278 18 -294 q -44 -228 -44 -262 q -29 -160 -44 -194 q 6 -126 -14 -126 z "},"k":{"ha":724,"x_min":92,"x_max":717,"o":"m 92 42 l 92 1003 q 175 1047 92 1047 l 214 1047 q 297 1003 297 1047 l 297 453 l 303 451 l 471 703 q 556 729 489 729 l 607 729 q 685 708 685 729 q 672 681 685 697 l 479 406 l 706 47 q 717 18 717 28 q 638 -3 717 -3 l 579 -3 q 496 24 511 -3 l 303 343 l 297 342 l 297 42 q 214 -3 297 -3 l 175 -3 q 92 42 92 -3 z "},"l":{"ha":413,"x_min":88,"x_max":424,"o":"m 343 151 l 381 157 q 411 116 399 157 q 424 57 424 75 q 290 -11 424 -11 q 88 214 88 -11 l 88 1003 q 171 1047 88 1047 l 210 1047 q 293 1003 293 1047 l 293 211 q 343 151 293 151 z "},"m":{"ha":1178,"x_min":69,"x_max":1086,"o":"m 86 42 l 86 482 q 78 628 86 586 q 69 678 69 669 q 126 711 69 700 q 210 722 182 722 q 247 717 238 722 q 261 699 256 711 q 269 680 267 688 q 276 654 272 672 q 281 632 279 636 q 369 707 314 676 q 486 738 424 738 q 669 632 629 738 q 761 707 704 676 q 883 738 818 738 q 1037 683 988 738 q 1086 513 1086 628 l 1086 42 q 1003 -3 1086 -3 l 964 -3 q 881 42 881 -3 l 881 482 q 799 568 881 568 q 689 488 731 568 l 689 42 q 606 -3 689 -3 l 567 -3 q 483 42 483 -3 l 483 482 q 401 568 483 568 q 292 488 333 568 l 292 42 q 208 -3 292 -3 l 169 -3 q 86 42 86 -3 z "},"n":{"ha":774,"x_min":69,"x_max":692,"o":"m 86 42 l 86 482 q 78 628 86 586 q 69 678 69 669 q 126 711 69 700 q 210 722 182 722 q 247 717 238 722 q 261 699 256 711 q 269 680 267 688 q 276 654 272 672 q 281 632 279 636 q 369 707 314 676 q 488 738 425 738 q 642 683 592 738 q 692 513 692 628 l 692 42 q 608 -3 692 -3 l 569 -3 q 486 42 486 -3 l 486 482 q 403 568 486 568 q 292 488 333 568 l 292 42 q 208 -3 292 -3 l 169 -3 q 86 42 86 -3 z "},"o":{"ha":790,"x_min":58,"x_max":732,"o":"m 144 85 q 101 134 144 85 q 58 364 58 182 q 144 642 58 546 q 396 738 231 738 q 647 642 561 738 q 732 364 732 546 q 647 85 732 182 q 396 -11 561 -11 q 144 85 231 -11 m 267 363 q 267 257 267 363 q 395 151 267 151 q 524 363 524 151 q 395 575 524 575 q 267 363 267 575 z "},"p":{"ha":796,"x_min":81,"x_max":738,"o":"m 97 -242 l 97 482 q 89 628 97 586 q 81 678 81 669 q 137 711 81 700 q 221 722 193 722 q 258 717 249 722 q 272 699 267 711 q 281 679 278 688 q 287 654 283 671 q 292 633 290 638 q 366 708 317 679 q 478 738 415 738 q 665 638 593 738 q 738 365 738 539 q 660 90 738 190 q 444 -11 583 -11 q 303 32 363 -11 l 303 -242 q 219 -286 303 -286 l 181 -286 q 97 -242 97 -286 m 400 151 q 529 360 529 151 q 417 569 529 569 q 303 488 350 569 l 303 178 q 400 151 350 151 z "},"q":{"ha":786,"x_min":58,"x_max":706,"o":"m 358 -11 q 138 90 217 -11 q 58 365 58 190 q 132 638 58 539 q 325 738 206 738 q 437 708 388 738 q 511 633 486 679 l 525 693 q 606 729 533 729 l 622 729 q 706 685 706 729 l 706 -242 q 622 -286 706 -286 l 583 -286 q 500 -242 500 -286 l 500 32 q 358 -11 440 -11 m 403 151 q 500 178 453 151 l 500 488 q 386 569 453 569 q 267 360 267 569 q 403 151 267 151 z "},"r":{"ha":508,"x_min":69,"x_max":511,"o":"m 86 42 l 86 482 q 78 628 86 586 q 69 678 69 669 q 126 711 69 700 q 210 722 182 722 q 247 717 238 722 q 261 699 256 711 q 269 680 267 688 q 276 654 272 672 q 281 632 279 636 q 432 738 339 738 q 494 715 476 738 q 511 663 511 692 q 499 590 511 633 q 468 546 486 546 q 439 551 460 546 q 403 557 418 557 q 292 488 333 557 l 292 42 q 208 -3 292 -3 l 169 -3 q 86 42 86 -3 z "},"s":{"ha":574,"x_min":43,"x_max":546,"o":"m 43 88 q 69 150 43 110 q 117 190 96 190 q 167 171 119 190 q 253 151 214 151 q 338 214 338 151 q 309 267 338 247 q 240 301 281 288 q 158 335 199 315 q 88 399 117 354 q 60 513 60 443 q 128 677 60 617 q 315 738 197 738 q 421 726 371 738 q 521 650 521 704 q 500 590 521 632 q 461 547 479 547 q 420 562 460 547 q 343 576 381 576 q 268 526 268 576 q 297 481 268 499 q 366 449 325 464 q 448 413 407 435 q 517 345 489 392 q 546 231 546 299 q 474 55 546 121 q 295 -11 403 -11 q 115 15 188 -11 q 43 88 43 40 z "},"t":{"ha":475,"x_min":43,"x_max":443,"o":"m 363 151 l 400 157 q 431 116 418 157 q 443 57 443 75 q 310 -11 443 -11 q 107 214 107 -11 l 107 564 l 85 564 q 43 633 43 564 l 43 657 q 85 726 43 726 l 107 726 l 125 858 q 200 903 132 903 l 243 903 q 313 858 313 903 l 313 726 l 381 726 q 422 657 422 726 l 422 633 q 381 564 422 564 l 313 564 l 313 211 q 363 151 313 151 z "},"u":{"ha":774,"x_min":82,"x_max":704,"o":"m 82 214 l 82 685 q 165 729 82 729 l 204 729 q 288 685 288 729 l 288 244 q 371 158 288 158 q 482 239 440 158 l 482 685 q 565 729 482 729 l 604 729 q 688 685 688 729 l 688 244 q 696 100 688 158 l 704 43 q 648 10 704 21 q 564 -1 592 -1 q 527 4 536 -1 q 513 23 518 10 q 504 44 507 36 q 498 71 501 51 q 493 94 494 90 q 405 19 460 50 q 286 -11 350 -11 q 132 44 182 -11 q 82 214 82 99 z "},"v":{"ha":674,"x_min":10,"x_max":661,"o":"m 10 699 q 94 729 10 729 l 140 729 q 218 700 208 729 l 300 443 q 339 275 303 432 l 344 275 q 383 443 369 397 l 465 700 q 543 729 475 729 l 578 729 q 661 699 661 729 q 657 674 661 689 l 436 26 q 358 -3 426 -3 l 314 -3 q 236 26 246 -3 l 15 674 q 10 699 10 693 z "},"w":{"ha":1038,"x_min":25,"x_max":1006,"o":"m 25 693 q 111 729 25 729 l 144 729 q 221 700 213 729 l 331 272 l 436 700 q 513 729 442 729 l 546 729 q 622 700 617 729 l 725 272 l 838 700 q 914 729 846 729 l 919 729 q 1006 693 1006 729 q 1003 672 1006 689 l 839 26 q 763 -3 831 -3 l 694 -3 q 618 26 626 -3 l 518 417 l 424 26 q 347 -3 417 -3 l 279 -3 q 203 26 211 -3 l 28 672 q 25 693 25 681 z "},"x":{"ha":674,"x_min":7,"x_max":667,"o":"m 7 22 q 22 57 7 33 l 232 368 l 35 668 q 19 704 19 692 q 107 729 19 729 l 151 729 q 236 703 219 729 l 342 532 l 451 703 q 536 729 468 729 l 576 729 q 664 704 664 729 q 649 669 664 693 l 446 369 l 651 58 q 667 22 667 35 q 579 -3 667 -3 l 535 -3 q 450 24 467 -3 l 336 206 l 221 24 q 136 -3 204 -3 l 94 -3 q 7 22 7 -3 z "},"y":{"ha":668,"x_min":14,"x_max":663,"o":"m 14 699 q 99 729 14 729 l 143 729 q 221 700 211 729 l 303 443 q 342 275 315 404 l 347 275 q 386 443 375 408 l 468 700 q 546 729 478 729 l 579 729 q 663 699 663 729 q 658 674 663 689 l 340 -257 q 263 -286 329 -286 l 239 -286 q 156 -257 156 -286 q 161 -232 156 -244 l 249 0 l 19 674 q 14 699 14 693 z "},"z":{"ha":679,"x_min":38,"x_max":639,"o":"m 78 0 q 51 38 65 0 q 38 98 38 76 q 42 125 38 119 l 360 564 l 101 564 q 60 633 60 564 l 60 657 q 101 726 60 726 l 593 726 q 619 688 604 726 q 633 627 633 649 q 629 599 633 606 l 313 163 l 597 163 q 639 93 639 163 l 639 69 q 597 0 639 0 l 78 0 z "},"{":{"ha":381,"x_min":25,"x_max":364,"o":"m 131 -31 l 131 203 q 116 308 131 272 q 65 360 101 344 q 25 429 25 383 l 25 446 q 65 515 25 492 q 116 567 101 531 q 131 672 131 603 l 131 906 q 169 1022 131 976 q 268 1067 207 1067 l 322 1067 q 364 1011 364 1067 l 364 992 q 328 936 364 938 l 331 936 q 290 886 290 936 l 290 650 q 196 438 290 492 q 290 225 290 383 l 290 -11 q 324 -61 290 -57 q 364 -117 364 -61 l 364 -136 q 322 -192 364 -192 l 268 -192 q 169 -147 207 -192 q 131 -31 131 -101 z "},"|":{"ha":347,"x_min":94,"x_max":254,"o":"m 94 -150 l 94 1025 q 164 1067 94 1067 l 185 1067 q 254 1025 254 1067 l 254 -150 q 185 -192 254 -192 l 164 -192 q 94 -150 94 -192 z "},"}":{"ha":381,"x_min":26,"x_max":365,"o":"m 26 -117 q 65 -61 26 -61 q 100 -11 100 -57 l 100 225 q 194 438 100 383 q 100 650 100 492 l 100 886 q 60 936 100 936 l 61 936 q 26 992 26 938 l 26 1011 q 68 1067 26 1067 l 122 1067 q 222 1022 183 1067 q 260 906 260 976 l 260 672 q 274 567 260 603 q 325 515 289 531 q 365 446 365 492 l 365 429 q 325 360 365 383 q 274 308 289 344 q 260 203 260 272 l 260 -31 q 222 -147 260 -101 q 122 -192 183 -192 l 68 -192 q 26 -136 26 -192 l 26 -117 z "},"~":{"ha":760,"x_min":89,"x_max":672,"o":"m 238 313 q 223 313 238 313 q 181 305 208 313 q 140 297 154 297 q 107 321 125 297 q 89 368 89 344 q 160 442 89 404 q 286 481 231 481 q 417 451 342 481 q 518 422 492 422 q 574 433 544 422 q 620 443 603 443 q 655 415 638 443 q 672 363 672 388 q 599 289 672 324 q 471 254 525 254 q 342 283 417 254 q 238 313 268 313 z "}," ":{"ha":667,"x_min":0,"x_max":0,"o":""},"¡":{"ha":408,"x_min":65,"x_max":319,"o":"m 192 513 q 108 557 108 513 l 108 685 q 192 729 108 729 l 236 729 q 319 685 319 729 l 319 557 q 236 513 319 513 l 192 513 m 65 -211 q 135 372 65 -201 q 151 406 138 396 q 206 417 165 417 l 221 417 q 276 406 261 417 q 292 372 292 396 l 292 -206 q 208 -250 292 -250 l 149 -250 q 65 -211 65 -250 z "},"¢":{"ha":675,"x_min":58,"x_max":640,"o":"m 365 -10 q 134 90 210 -1 q 58 358 58 181 q 133 630 58 535 q 365 736 207 725 l 365 774 q 403 815 365 815 q 444 774 444 815 l 444 736 q 577 706 519 731 q 635 642 635 681 q 606 578 635 621 q 561 535 578 535 q 519 552 557 535 q 444 574 482 569 l 444 153 q 525 174 486 157 q 568 192 564 192 q 615 151 589 192 q 640 86 640 110 q 444 -8 640 14 l 444 -67 q 407 -108 444 -108 q 365 -67 365 -108 l 365 -10 m 365 568 q 267 362 267 539 q 365 157 267 185 l 365 568 z "},"£":{"ha":682,"x_min":25,"x_max":626,"o":"m 25 56 l 25 82 q 78 149 25 115 q 114 186 97 161 q 131 243 131 211 l 131 432 l 85 432 q 43 501 43 432 l 43 525 q 85 594 43 594 l 131 594 l 131 697 q 450 983 131 983 q 603 921 603 983 q 584 851 603 885 q 547 817 565 817 q 533 819 546 817 q 458 828 493 828 q 332 704 332 828 l 332 594 l 482 594 q 524 525 524 594 l 524 501 q 482 432 524 432 l 332 432 l 332 349 q 275 163 332 219 l 585 163 q 626 93 626 163 l 626 69 q 585 0 626 0 l 81 0 q 25 56 25 0 z "},"¤":{"ha":742,"x_min":54,"x_max":672,"o":"m 75 158 q 58 193 58 175 q 75 228 58 211 l 106 258 q 68 404 68 325 q 108 549 68 483 l 71 586 q 54 621 54 603 q 71 656 54 639 l 113 697 q 147 714 129 714 q 182 697 165 714 l 221 658 q 363 694 289 694 q 504 657 436 694 l 544 697 q 579 714 561 714 q 614 697 597 714 l 656 656 q 672 621 672 639 q 656 586 672 603 l 615 546 q 654 404 654 479 q 618 261 654 329 l 651 228 q 668 193 668 211 q 651 158 668 175 l 610 117 q 575 100 593 100 q 540 117 557 100 l 508 149 q 363 108 443 108 q 215 146 283 108 l 186 117 q 151 100 169 100 q 117 117 133 100 l 75 158 m 266 306 q 286 286 266 306 q 361 267 306 267 q 456 306 417 267 q 496 401 496 344 q 456 497 496 458 q 361 536 417 536 q 266 497 306 536 q 226 401 226 458 q 266 306 226 344 z "},"¥":{"ha":776,"x_min":-6,"x_max":788,"o":"m 97 271 q 56 313 56 271 l 56 333 q 97 375 56 375 l 285 375 l 285 464 l 97 464 q 56 506 56 464 l 56 526 q 97 568 56 568 l 221 568 l 8 913 q -6 947 -6 936 q 83 975 -6 975 l 143 975 q 226 949 211 975 l 396 651 l 567 949 q 650 975 582 975 l 700 975 q 788 947 788 975 q 775 913 788 933 l 563 568 l 676 568 q 718 526 718 568 l 718 506 q 676 463 718 463 l 499 463 l 499 375 l 676 375 q 718 333 718 375 l 718 313 q 676 271 718 271 l 499 271 l 499 42 q 415 -3 499 -3 l 368 -3 q 285 42 285 -3 l 285 271 l 97 271 z "},"¦":{"ha":347,"x_min":94,"x_max":254,"o":"m 164 528 q 94 572 94 528 l 94 1025 q 164 1069 94 1069 l 185 1069 q 254 1025 254 1069 l 254 572 q 185 528 254 528 l 164 528 m 94 -150 l 94 303 q 164 347 94 347 l 185 347 q 254 303 254 347 l 254 -150 q 185 -194 254 -194 l 164 -194 q 94 -150 94 -194 z "},"§":{"ha":596,"x_min":57,"x_max":544,"o":"m 183 1 q 157 7 183 1 q 108 31 132 13 q 83 73 83 50 q 104 138 83 96 q 143 181 125 181 q 184 166 144 181 q 261 151 224 151 q 336 194 336 151 q 308 236 336 219 q 238 268 279 253 q 156 305 197 283 q 87 372 115 326 q 58 497 58 418 q 110 638 58 575 q 57 776 57 683 q 126 926 57 869 q 313 983 194 983 q 418 972 368 983 q 518 896 518 950 q 497 835 518 878 q 458 793 476 793 q 417 808 457 793 q 340 822 378 822 q 265 779 265 822 q 294 738 265 754 q 363 706 322 721 q 445 669 404 690 q 515 601 486 647 q 543 476 543 556 q 492 336 543 396 q 544 195 544 286 q 476 47 544 104 q 289 -10 407 -10 q 183 1 233 -10 m 350 406 q 363 469 363 433 q 335 527 363 506 q 251 568 307 549 q 239 506 239 544 q 267 447 239 468 q 350 406 294 425 z "},"¨":{"ha":444,"x_min":15,"x_max":432,"o":"m 432 847 q 349 803 432 803 q 265 847 265 803 l 265 931 q 349 975 265 975 q 432 931 432 975 l 432 847 m 182 847 q 99 803 182 803 q 15 847 15 803 l 15 931 q 99 975 15 975 q 182 931 182 975 l 182 847 z "},"©":{"ha":1026,"x_min":14,"x_max":1008,"o":"m 160 135 q 87 208 160 135 q 14 486 14 281 q 160 838 14 692 q 511 983 306 983 q 863 838 717 983 q 1008 486 1008 692 q 863 135 1008 281 q 511 -11 717 -11 q 160 135 306 -11 m 222 775 q 163 715 222 775 q 103 486 103 656 q 222 197 103 317 q 511 78 342 78 q 800 197 681 78 q 919 486 919 317 q 800 775 919 656 q 511 894 681 894 q 222 775 342 894 m 274 490 q 532 767 274 767 q 642 751 589 767 q 694 713 694 735 q 676 667 694 694 q 644 639 658 639 q 628 644 642 639 q 531 664 589 664 q 396 488 396 664 q 529 313 396 313 q 636 336 589 313 q 656 344 653 344 q 687 317 672 344 q 701 276 701 290 q 644 228 701 244 q 529 211 588 211 q 336 279 399 211 q 274 490 274 347 z "},"ª":{"ha":443,"x_min":58,"x_max":367,"o":"m 160 611 q 58 711 58 611 q 257 840 58 840 l 257 863 q 203 901 257 901 q 139 891 161 901 q 114 881 117 881 q 92 902 104 881 q 79 936 79 924 q 117 969 79 954 q 211 983 156 983 q 358 868 358 983 l 358 738 q 363 663 358 682 q 367 639 367 643 q 339 622 367 628 q 297 615 311 615 q 279 618 283 615 q 272 627 275 621 q 268 638 269 633 q 263 663 263 654 q 222 626 254 642 q 160 611 189 611 m 160 722 q 199 692 160 692 q 257 735 238 692 l 257 772 q 160 722 160 772 z "},"«":{"ha":654,"x_min":38,"x_max":632,"o":"m 336 297 q 314 358 314 324 q 336 419 314 393 l 513 632 q 551 651 531 651 q 602 628 572 651 q 632 588 632 606 q 619 553 632 569 l 467 358 l 619 164 q 632 129 632 147 q 603 88 632 111 q 552 64 574 64 q 513 85 531 64 l 336 297 m 60 297 q 38 358 38 324 q 60 419 38 393 l 236 632 q 275 651 254 651 q 326 628 296 651 q 356 588 356 606 q 343 553 356 569 l 190 358 l 343 164 q 356 129 356 147 q 326 88 356 111 q 276 64 297 64 q 236 85 256 64 l 60 297 z "},"¬":{"ha":778,"x_min":42,"x_max":736,"o":"m 83 336 q 42 406 42 336 l 42 415 q 83 485 42 485 l 681 485 q 736 429 736 485 l 736 144 q 681 100 736 100 l 653 100 q 597 144 597 100 l 597 336 l 83 336 z "},"­":{"ha":444,"x_min":42,"x_max":396,"o":"m 83 294 q 42 364 42 294 l 42 374 q 83 443 42 443 l 354 443 q 396 374 396 443 l 396 364 q 354 294 396 294 l 83 294 z "},"®":{"ha":1026,"x_min":14,"x_max":1008,"o":"m 160 135 q 87 208 160 135 q 14 486 14 281 q 160 838 14 692 q 511 983 306 983 q 863 838 717 983 q 1008 486 1008 692 q 863 135 1008 281 q 511 -11 717 -11 q 160 135 306 -11 m 222 775 q 163 715 222 775 q 103 486 103 656 q 222 197 103 317 q 511 78 342 78 q 800 197 681 78 q 919 486 919 317 q 800 775 919 656 q 511 894 681 894 q 222 775 342 894 m 335 242 l 335 731 q 365 761 335 761 l 517 761 q 710 615 710 761 q 618 492 710 528 l 618 486 q 675 418 656 469 l 743 247 q 747 232 747 238 q 701 217 747 217 l 669 217 q 624 233 631 217 l 563 385 q 535 420 550 410 q 485 431 519 431 l 454 431 l 454 242 q 407 217 454 217 l 382 217 q 335 242 335 217 m 454 533 l 528 533 q 569 553 551 533 q 588 601 588 574 q 570 644 588 628 q 522 660 553 660 l 454 660 l 454 533 z "},"¯":{"ha":444,"x_min":29,"x_max":411,"o":"m 71 829 q 29 885 29 829 l 29 906 q 71 961 29 961 l 369 961 q 411 906 411 961 l 411 885 q 369 829 411 829 l 71 829 z "},"°":{"ha":479,"x_min":53,"x_max":421,"o":"m 367 669 q 340 642 367 669 q 236 615 313 615 q 106 669 160 615 q 53 799 53 722 q 106 929 53 875 q 236 983 160 983 q 367 929 313 983 q 421 799 421 875 q 367 669 421 722 m 170 730 q 184 716 170 730 q 236 701 197 701 q 303 730 275 701 q 331 799 331 758 q 303 868 331 839 q 236 897 275 897 q 170 868 197 897 q 143 799 143 839 q 170 730 143 758 z "},"±":{"ha":778,"x_min":57,"x_max":721,"o":"m 308 222 l 308 433 l 99 433 q 57 503 57 433 l 57 513 q 99 582 57 582 l 308 582 l 308 796 q 378 838 308 838 l 397 838 q 467 796 467 838 l 467 582 l 679 582 q 721 513 721 582 l 721 503 q 679 433 721 433 l 467 433 l 467 222 q 397 181 467 181 l 378 181 q 308 222 308 181 m 57 69 l 57 79 q 99 149 57 149 l 679 149 q 721 79 721 149 l 721 69 q 679 0 721 0 l 99 0 q 57 69 57 0 z "},"²":{"ha":444,"x_min":22,"x_max":393,"o":"m 46 406 q 30 431 38 406 q 22 471 22 457 q 25 490 22 485 l 231 740 q 261 814 261 778 q 186 885 261 885 q 122 868 154 885 l 92 851 q 59 870 74 851 q 44 907 44 889 q 94 960 44 940 q 216 981 143 981 q 336 937 289 981 q 383 822 383 893 q 333 689 383 751 l 182 500 l 368 500 q 393 461 393 500 l 393 447 q 368 406 393 406 l 46 406 z "},"³":{"ha":444,"x_min":29,"x_max":390,"o":"m 390 572 q 340 445 390 492 q 217 399 289 399 q 88 415 146 399 q 29 467 29 432 q 42 504 29 481 q 69 528 56 528 l 108 511 q 186 494 147 494 q 247 515 225 494 q 268 574 268 536 q 172 657 268 657 l 150 657 q 125 697 125 657 l 125 713 q 150 753 125 753 l 165 753 q 227 772 204 753 q 250 821 250 790 q 183 888 250 888 q 117 874 146 888 q 88 861 89 861 q 60 884 75 861 q 46 924 46 907 q 92 968 46 953 q 210 983 139 983 q 327 944 282 983 q 372 840 372 906 q 296 722 372 756 l 296 717 q 390 572 390 679 z "},"´":{"ha":444,"x_min":75,"x_max":367,"o":"m 118 826 q 75 847 75 826 q 95 892 75 861 q 132 951 115 922 q 165 1010 149 981 q 276 1047 186 1047 q 367 1028 367 1047 q 358 1008 367 1019 q 325 972 350 997 q 290 935 300 946 q 261 903 281 925 q 222 861 242 882 q 118 826 190 826 z "},"µ":{"ha":786,"x_min":74,"x_max":696,"o":"m 74 -242 l 74 685 q 157 729 74 729 l 196 729 q 279 685 279 729 l 279 244 q 363 158 279 158 q 474 239 432 158 l 474 685 q 557 729 474 729 l 596 729 q 679 685 679 729 l 679 244 q 688 100 679 158 l 696 43 q 640 10 696 21 q 556 -1 583 -1 q 519 4 528 -1 q 504 23 510 10 q 496 44 499 36 q 490 71 493 51 q 485 94 486 90 q 397 21 451 51 q 279 -11 342 -10 l 279 -242 q 196 -286 279 -286 l 157 -286 q 74 -242 74 -286 z "},"¶":{"ha":715,"x_min":57,"x_max":696,"o":"m 338 -196 l 338 343 q 138 447 219 357 q 57 666 57 536 q 148 884 57 796 q 372 972 239 972 l 654 972 q 696 929 696 972 q 654 886 696 886 l 618 886 l 618 -196 q 575 -237 618 -237 q 532 -196 532 -237 l 532 886 l 424 886 l 424 -196 q 381 -237 424 -237 q 338 -196 338 -237 z "},"·":{"ha":371,"x_min":99,"x_max":293,"o":"m 265 430 q 250 416 265 430 q 196 401 236 401 q 127 430 156 401 q 99 499 99 458 q 127 567 99 539 q 196 596 156 596 q 265 567 236 596 q 293 499 293 539 q 265 430 293 458 z "},"¸":{"ha":444,"x_min":40,"x_max":388,"o":"m 56 -179 q 64 -172 56 -179 q 85 -164 72 -164 q 138 -178 97 -164 q 212 -193 179 -193 q 244 -169 244 -193 q 208 -135 244 -151 q 171 -103 171 -119 q 206 14 171 -92 l 297 14 l 279 -50 q 388 -156 388 -72 q 222 -294 388 -294 q 99 -275 157 -294 q 40 -225 40 -256 q 56 -179 40 -194 z "},"¹":{"ha":301,"x_min":21,"x_max":276,"o":"m 206 407 q 157 433 157 407 l 157 867 l 47 849 q 21 918 21 849 q 42 942 21 938 l 244 978 q 265 972 254 978 q 276 958 276 965 l 276 433 q 228 407 276 407 l 206 407 z "},"º":{"ha":468,"x_min":65,"x_max":400,"o":"m 233 613 q 108 660 151 613 q 65 799 65 708 q 108 936 65 889 q 233 983 151 983 q 400 798 400 983 q 233 613 400 613 m 169 798 q 169 745 169 798 q 233 693 169 693 q 296 798 296 693 q 233 903 296 903 q 169 798 169 903 z "},"»":{"ha":654,"x_min":58,"x_max":653,"o":"m 415 64 q 404 64 415 64 q 364 88 393 64 q 335 129 335 111 q 347 164 335 147 l 500 358 l 347 553 q 335 588 335 569 q 365 628 335 606 q 415 651 394 651 q 454 632 436 651 l 631 419 q 653 358 653 393 q 631 297 653 324 l 454 85 q 415 64 436 64 m 138 64 q 127 64 138 64 q 88 88 117 64 q 58 129 58 111 q 71 164 58 147 l 224 358 l 71 553 q 58 588 58 569 q 88 628 58 606 q 139 651 118 651 q 178 632 160 651 l 354 419 q 376 358 376 393 q 354 297 376 324 l 178 85 q 138 64 158 64 z "},"¼":{"ha":932,"x_min":21,"x_max":900,"o":"m 206 407 q 157 433 157 407 l 157 867 l 47 849 q 21 918 21 849 q 42 942 21 938 l 244 978 q 265 972 254 978 q 276 958 276 965 l 276 433 q 228 407 276 407 l 206 407 m 156 15 q 164 36 156 24 l 663 936 q 725 972 682 972 l 749 972 q 778 957 778 972 q 769 936 778 949 l 271 36 q 208 0 250 0 l 185 0 q 156 15 156 0 m 513 114 q 493 142 503 114 q 483 183 483 169 q 485 199 483 196 l 725 554 q 775 569 738 569 l 796 569 q 844 543 844 569 l 844 208 l 876 208 q 900 168 900 208 l 900 154 q 876 114 900 114 l 844 114 l 844 24 q 796 -3 844 -3 l 774 -3 q 725 24 725 -3 l 725 114 l 513 114 m 725 208 l 725 333 l 735 407 l 729 407 l 604 208 l 725 208 z "},"½":{"ha":1036,"x_min":21,"x_max":974,"o":"m 206 407 q 157 433 157 407 l 157 867 l 47 849 q 21 918 21 849 q 42 942 21 938 l 244 978 q 265 972 254 978 q 276 958 276 965 l 276 433 q 228 407 276 407 l 206 407 m 156 15 q 164 36 156 24 l 663 936 q 725 972 682 972 l 749 972 q 778 957 778 972 q 769 936 778 949 l 271 36 q 208 0 250 0 l 185 0 q 156 15 156 0 m 626 0 q 610 26 618 0 q 603 65 603 51 q 606 85 603 79 l 811 335 q 842 408 842 372 q 767 479 842 479 q 703 463 735 479 l 672 446 q 640 465 654 446 q 625 501 625 483 q 674 555 625 535 q 797 575 724 575 q 917 531 869 575 q 964 417 964 488 q 914 283 964 346 l 763 94 l 949 94 q 974 56 974 94 l 974 42 q 949 0 974 0 l 626 0 z "},"¾":{"ha":1025,"x_min":38,"x_max":953,"o":"m 399 572 q 348 445 399 492 q 226 399 297 399 q 96 415 154 399 q 38 467 38 432 q 51 504 38 481 q 78 528 64 528 l 117 511 q 194 494 156 494 q 255 515 233 494 q 276 574 276 536 q 181 657 276 657 l 158 657 q 133 697 133 657 l 133 713 q 158 753 133 753 l 174 753 q 235 772 213 753 q 258 821 258 790 q 192 888 258 888 q 126 874 154 888 q 96 861 97 861 q 69 884 83 861 q 54 924 54 907 q 101 968 54 953 q 219 983 147 983 q 335 944 290 983 q 381 840 381 906 q 304 722 381 756 l 304 717 q 399 572 399 679 m 208 15 q 217 36 208 24 l 715 936 q 778 972 735 972 l 801 972 q 831 957 831 972 q 822 936 831 949 l 324 36 q 261 0 303 0 l 238 0 q 208 15 208 0 m 565 114 q 546 142 556 114 q 536 183 536 169 q 538 199 536 196 l 778 554 q 828 569 790 569 l 849 569 q 897 543 897 569 l 897 208 l 929 208 q 953 168 953 208 l 953 154 q 929 114 953 114 l 897 114 l 897 24 q 849 -3 897 -3 l 826 -3 q 778 24 778 -3 l 778 114 l 565 114 m 778 208 l 778 333 l 788 407 l 782 407 l 657 208 l 778 208 z "},"¿":{"ha":590,"x_min":25,"x_max":588,"o":"m 268 557 l 268 685 q 351 729 268 729 l 396 729 q 479 685 479 729 l 479 557 q 396 513 479 513 l 351 513 q 268 557 268 513 m 108 183 q 181 246 144 217 q 283 381 271 317 q 306 410 289 401 q 357 418 322 418 l 389 418 q 457 378 457 418 q 381 194 457 285 q 318 122 350 157 q 242 4 242 42 q 344 -74 242 -74 q 444 -52 392 -74 q 500 -31 497 -31 q 557 -75 526 -31 q 588 -144 588 -119 q 506 -228 588 -200 q 326 -257 424 -257 q 106 -190 186 -257 q 25 -11 25 -124 q 108 183 25 101 z "},"À":{"ha":851,"x_min":0,"x_max":851,"o":"m 0 28 q 6 53 0 33 l 311 946 q 390 975 322 975 l 463 975 q 542 946 531 975 l 847 53 q 851 28 851 39 q 782 -3 851 -3 l 721 -3 q 643 26 653 -3 l 588 196 l 260 196 l 204 26 q 140 -3 194 -3 l 85 -3 q 0 28 0 -3 m 319 379 l 528 379 l 449 626 l 428 715 l 422 715 q 401 626 410 650 l 319 379 m 508 1076 q 399 1117 436 1076 q 319 1203 363 1157 q 267 1260 275 1250 q 260 1278 260 1269 q 350 1297 260 1297 q 461 1260 440 1297 q 494 1201 478 1231 q 521 1158 511 1172 q 539 1129 531 1143 q 551 1097 551 1106 q 508 1076 551 1076 z "},"Á":{"ha":851,"x_min":0,"x_max":851,"o":"m 0 28 q 6 53 0 33 l 311 946 q 390 975 322 975 l 463 975 q 542 946 531 975 l 847 53 q 851 28 851 39 q 782 -3 851 -3 l 721 -3 q 643 26 653 -3 l 588 196 l 260 196 l 204 26 q 140 -3 194 -3 l 85 -3 q 0 28 0 -3 m 319 379 l 528 379 l 449 626 l 428 715 l 422 715 q 401 626 410 650 l 319 379 m 361 1076 q 318 1097 318 1076 q 338 1142 318 1111 q 375 1201 358 1172 q 408 1260 392 1231 q 519 1297 429 1297 q 610 1278 610 1297 q 601 1258 610 1269 q 568 1222 593 1247 q 533 1185 543 1196 q 504 1153 524 1175 q 465 1111 485 1132 q 361 1076 433 1076 z "},"Â":{"ha":851,"x_min":0,"x_max":851,"o":"m 0 28 q 6 53 0 33 l 311 946 q 390 975 322 975 l 463 975 q 542 946 531 975 l 847 53 q 851 28 851 39 q 782 -3 851 -3 l 721 -3 q 643 26 653 -3 l 588 196 l 260 196 l 204 26 q 140 -3 194 -3 l 85 -3 q 0 28 0 -3 m 319 379 l 528 379 l 449 626 l 428 715 l 422 715 q 401 626 410 650 l 319 379 m 260 1058 q 232 1072 232 1058 q 240 1093 232 1081 l 331 1235 q 415 1261 347 1261 l 431 1261 q 515 1235 499 1261 l 606 1093 q 614 1072 614 1081 q 586 1058 614 1058 l 556 1058 q 461 1092 483 1058 l 422 1147 l 383 1093 q 290 1058 358 1058 l 260 1058 z "},"Ã":{"ha":851,"x_min":0,"x_max":851,"o":"m 0 28 q 6 53 0 33 l 311 946 q 390 975 322 975 l 463 975 q 542 946 531 975 l 847 53 q 851 28 851 39 q 782 -3 851 -3 l 721 -3 q 643 26 653 -3 l 588 196 l 260 196 l 204 26 q 140 -3 194 -3 l 85 -3 q 0 28 0 -3 m 319 379 l 528 379 l 449 626 l 428 715 l 422 715 q 401 626 410 650 l 319 379 m 322 1104 l 260 1089 q 219 1109 238 1089 q 201 1155 201 1129 q 248 1207 201 1181 q 342 1233 294 1233 q 445 1219 390 1233 q 525 1206 500 1206 l 589 1221 q 628 1201 610 1221 q 646 1155 646 1181 q 599 1103 646 1129 q 505 1076 553 1076 q 401 1090 457 1076 q 322 1104 346 1104 z "},"Ä":{"ha":851,"x_min":0,"x_max":851,"o":"m 0 28 q 6 53 0 33 l 311 946 q 390 975 322 975 l 463 975 q 542 946 531 975 l 847 53 q 851 28 851 39 q 782 -3 851 -3 l 721 -3 q 643 26 653 -3 l 588 196 l 260 196 l 204 26 q 140 -3 194 -3 l 85 -3 q 0 28 0 -3 m 319 379 l 528 379 l 449 626 l 428 715 l 422 715 q 401 626 410 650 l 319 379 m 632 1097 q 549 1053 632 1053 q 465 1097 465 1053 l 465 1181 q 549 1225 465 1225 q 632 1181 632 1225 l 632 1097 m 382 1097 q 299 1053 382 1053 q 215 1097 215 1053 l 215 1181 q 299 1225 215 1225 q 382 1181 382 1225 l 382 1097 z "},"Å":{"ha":851,"x_min":0,"x_max":851,"o":"m 0 28 q 6 53 0 33 l 311 946 q 390 975 322 975 l 463 975 q 542 946 531 975 l 847 53 q 851 28 851 39 q 782 -3 851 -3 l 721 -3 q 643 26 653 -3 l 588 196 l 260 196 l 204 26 q 140 -3 194 -3 l 85 -3 q 0 28 0 -3 m 319 379 l 528 379 l 449 626 l 428 715 l 422 715 q 401 626 410 650 l 319 379 m 522 1053 q 502 1034 522 1053 q 424 1014 482 1014 q 326 1053 365 1014 q 286 1151 286 1093 q 326 1250 286 1210 q 424 1290 365 1290 q 522 1250 482 1290 q 563 1151 563 1210 q 522 1053 563 1093 m 388 1115 q 395 1107 388 1115 q 424 1100 403 1100 q 460 1115 444 1100 q 475 1150 475 1129 q 460 1186 475 1171 q 424 1201 444 1201 q 388 1186 403 1201 q 374 1150 374 1171 q 388 1115 374 1129 z "},"Æ":{"ha":1271,"x_min":1,"x_max":1201,"o":"m 1 28 q 7 53 1 42 l 453 935 q 514 972 472 972 l 1158 972 q 1200 903 1200 972 l 1200 860 q 1158 790 1200 790 l 718 790 l 757 589 l 1121 589 q 1163 519 1163 589 l 1163 476 q 1121 407 1163 407 l 793 407 l 836 182 l 1160 182 q 1201 113 1201 182 l 1201 69 q 1160 0 1201 0 l 700 0 q 651 42 660 0 l 622 196 l 285 196 l 201 26 q 138 -3 186 -3 l 86 -3 q 1 28 1 -3 m 543 746 l 538 746 l 499 632 l 375 379 l 589 379 l 543 631 l 543 746 z "},"Ç":{"ha":860,"x_min":63,"x_max":829,"o":"m 292 -178 q 300 -170 292 -178 q 321 -162 308 -162 q 374 -177 333 -162 q 448 -192 415 -192 q 481 -168 481 -192 q 444 -134 481 -150 q 407 -102 407 -118 q 433 -6 407 -86 q 153 135 244 14 q 63 489 63 257 q 526 983 63 983 q 722 956 628 983 q 817 886 817 928 q 784 806 817 856 q 726 756 751 756 q 697 767 722 756 q 522 800 625 800 q 282 485 282 800 q 519 171 282 171 q 711 213 619 171 q 747 226 742 226 q 803 178 776 226 q 829 106 829 131 q 730 20 829 50 q 525 -11 631 -10 l 515 -49 q 624 -154 624 -71 q 458 -293 624 -293 q 335 -274 393 -293 q 276 -224 276 -254 q 292 -178 276 -193 z "},"È":{"ha":758,"x_min":96,"x_max":703,"o":"m 96 56 l 96 917 q 151 972 96 972 l 660 972 q 701 903 701 972 l 701 860 q 660 790 701 790 l 310 790 l 310 589 l 622 589 q 664 519 664 589 l 664 476 q 622 407 664 407 l 310 407 l 310 182 l 661 182 q 703 113 703 182 l 703 69 q 661 0 703 0 l 151 0 q 96 56 96 0 m 490 1076 q 381 1117 418 1076 q 301 1203 344 1157 q 249 1260 257 1250 q 242 1278 242 1269 q 332 1297 242 1297 q 443 1260 422 1297 q 476 1201 460 1231 q 503 1158 493 1172 q 519 1129 513 1143 q 533 1097 533 1106 q 490 1076 533 1076 z "},"É":{"ha":758,"x_min":96,"x_max":703,"o":"m 96 56 l 96 917 q 151 972 96 972 l 660 972 q 701 903 701 972 l 701 860 q 660 790 701 790 l 310 790 l 310 589 l 622 589 q 664 519 664 589 l 664 476 q 622 407 664 407 l 310 407 l 310 182 l 661 182 q 703 113 703 182 l 703 69 q 661 0 703 0 l 151 0 q 96 56 96 0 m 343 1076 q 300 1097 300 1076 q 320 1142 300 1111 q 357 1201 340 1172 q 390 1260 374 1231 q 501 1297 411 1297 q 592 1278 592 1297 q 583 1258 592 1269 q 550 1222 575 1247 q 515 1185 525 1196 q 486 1153 506 1175 q 447 1111 467 1132 q 343 1076 415 1076 z "},"Ê":{"ha":758,"x_min":96,"x_max":703,"o":"m 96 56 l 96 917 q 151 972 96 972 l 660 972 q 701 903 701 972 l 701 860 q 660 790 701 790 l 310 790 l 310 589 l 622 589 q 664 519 664 589 l 664 476 q 622 407 664 407 l 310 407 l 310 182 l 661 182 q 703 113 703 182 l 703 69 q 661 0 703 0 l 151 0 q 96 56 96 0 m 242 1058 q 214 1072 214 1058 q 222 1093 214 1081 l 313 1235 q 397 1261 329 1261 l 413 1261 q 497 1235 481 1261 l 588 1093 q 596 1072 596 1081 q 568 1058 596 1058 l 538 1058 q 443 1092 465 1058 l 404 1147 l 365 1093 q 272 1058 340 1058 l 242 1058 z "},"Ë":{"ha":758,"x_min":96,"x_max":703,"o":"m 96 56 l 96 917 q 151 972 96 972 l 660 972 q 701 903 701 972 l 701 860 q 660 790 701 790 l 310 790 l 310 589 l 622 589 q 664 519 664 589 l 664 476 q 622 407 664 407 l 310 407 l 310 182 l 661 182 q 703 113 703 182 l 703 69 q 661 0 703 0 l 151 0 q 96 56 96 0 m 614 1097 q 531 1053 614 1053 q 447 1097 447 1053 l 447 1181 q 531 1225 447 1225 q 614 1181 614 1225 l 614 1097 m 364 1097 q 281 1053 364 1053 q 197 1097 197 1053 l 197 1181 q 281 1225 197 1225 q 364 1181 364 1225 l 364 1097 z "},"Ì":{"ha":392,"x_min":38,"x_max":329,"o":"m 88 42 l 88 931 q 171 976 88 976 l 219 976 q 303 931 303 976 l 303 42 q 219 -4 303 -4 l 171 -4 q 88 42 88 -4 m 286 1076 q 177 1117 214 1076 q 97 1203 140 1157 q 45 1260 53 1250 q 38 1278 38 1269 q 128 1297 38 1297 q 239 1260 218 1297 q 272 1201 256 1231 q 299 1158 289 1172 q 317 1129 308 1143 q 329 1097 329 1106 q 286 1076 329 1076 z "},"Í":{"ha":392,"x_min":88,"x_max":388,"o":"m 88 42 l 88 931 q 171 976 88 976 l 219 976 q 303 931 303 976 l 303 42 q 219 -4 303 -4 l 171 -4 q 88 42 88 -4 m 139 1076 q 96 1097 96 1076 q 116 1142 96 1111 q 153 1201 136 1172 q 186 1260 169 1231 q 297 1297 207 1297 q 388 1278 388 1297 q 379 1258 388 1269 q 346 1222 371 1247 q 311 1185 321 1196 q 282 1153 301 1175 q 243 1111 263 1132 q 139 1076 211 1076 z "},"Î":{"ha":392,"x_min":10,"x_max":392,"o":"m 88 42 l 88 931 q 171 976 88 976 l 219 976 q 303 931 303 976 l 303 42 q 219 -4 303 -4 l 171 -4 q 88 42 88 -4 m 38 1058 q 10 1072 10 1058 q 18 1093 10 1081 l 108 1235 q 193 1261 125 1261 l 208 1261 q 293 1235 276 1261 l 383 1093 q 392 1072 392 1081 q 364 1058 392 1058 l 333 1058 q 239 1092 261 1058 l 200 1147 l 161 1093 q 68 1058 136 1058 l 38 1058 z "},"Ï":{"ha":392,"x_min":-7,"x_max":410,"o":"m 88 42 l 88 931 q 171 976 88 976 l 219 976 q 303 931 303 976 l 303 42 q 219 -4 303 -4 l 171 -4 q 88 42 88 -4 m 410 1097 q 326 1053 410 1053 q 243 1097 243 1053 l 243 1181 q 326 1225 243 1225 q 410 1181 410 1225 l 410 1097 m 160 1097 q 76 1053 160 1053 q -7 1097 -7 1053 l -7 1181 q 76 1225 -7 1225 q 160 1181 160 1225 l 160 1097 z "},"Ð":{"ha":967,"x_min":17,"x_max":910,"o":"m 99 56 l 99 404 l 58 404 q 17 474 17 404 l 17 515 q 58 585 17 585 l 99 585 l 99 917 q 154 972 99 972 l 465 972 q 795 847 681 972 q 910 486 910 721 q 795 126 910 251 q 465 0 681 0 l 154 0 q 99 56 99 0 m 314 182 l 465 182 q 633 260 576 182 q 690 486 690 338 q 633 713 690 635 q 465 790 576 790 l 314 790 l 314 585 l 396 585 q 438 515 438 585 l 438 474 q 396 404 438 404 l 314 404 l 314 182 z "},"Ñ":{"ha":999,"x_min":96,"x_max":903,"o":"m 96 42 l 96 931 q 179 975 96 975 l 239 975 q 331 938 306 975 l 696 375 l 696 931 q 779 975 696 975 l 819 975 q 903 931 903 975 l 903 42 q 819 -3 903 -3 l 767 -3 q 675 35 700 -3 l 303 604 l 303 42 q 219 -3 303 -3 l 179 -3 q 96 42 96 -3 m 399 1104 l 336 1089 q 296 1109 314 1089 q 278 1155 278 1129 q 324 1207 278 1181 q 419 1233 371 1233 q 522 1219 467 1233 q 601 1206 576 1206 l 665 1221 q 704 1201 686 1221 q 722 1155 722 1181 q 676 1103 722 1129 q 581 1076 629 1076 q 478 1090 533 1076 q 399 1104 422 1104 z "},"Ò":{"ha":1015,"x_min":63,"x_max":953,"o":"m 178 117 q 120 182 178 117 q 63 486 63 246 q 178 855 63 726 q 508 983 293 983 q 838 855 724 983 q 953 486 953 726 q 838 117 953 246 q 508 -11 724 -11 q 178 117 293 -11 m 340 251 q 368 211 340 251 q 508 171 397 171 q 676 251 619 171 q 733 486 733 332 q 676 720 733 640 q 508 800 619 800 q 340 720 397 800 q 282 486 282 640 q 340 251 282 332 m 592 1076 q 483 1117 519 1076 q 402 1203 446 1157 q 351 1260 358 1250 q 343 1278 343 1269 q 433 1297 343 1297 q 544 1260 524 1297 q 578 1201 561 1231 q 604 1158 594 1172 q 622 1129 614 1143 q 635 1097 635 1106 q 592 1076 635 1076 z "},"Ó":{"ha":1015,"x_min":63,"x_max":953,"o":"m 178 117 q 120 182 178 117 q 63 486 63 246 q 178 855 63 726 q 508 983 293 983 q 838 855 724 983 q 953 486 953 726 q 838 117 953 246 q 508 -11 724 -11 q 178 117 293 -11 m 340 251 q 368 211 340 251 q 508 171 397 171 q 676 251 619 171 q 733 486 733 332 q 676 720 733 640 q 508 800 619 800 q 340 720 397 800 q 282 486 282 640 q 340 251 282 332 m 444 1076 q 401 1097 401 1076 q 422 1142 401 1111 q 458 1201 442 1172 q 492 1260 475 1231 q 603 1297 513 1297 q 693 1278 693 1297 q 685 1258 693 1269 q 651 1222 676 1247 q 617 1185 626 1196 q 588 1153 607 1175 q 549 1111 568 1132 q 444 1076 517 1076 z "},"Ô":{"ha":1015,"x_min":63,"x_max":953,"o":"m 178 117 q 120 182 178 117 q 63 486 63 246 q 178 855 63 726 q 508 983 293 983 q 838 855 724 983 q 953 486 953 726 q 838 117 953 246 q 508 -11 724 -11 q 178 117 293 -11 m 340 251 q 368 211 340 251 q 508 171 397 171 q 676 251 619 171 q 733 486 733 332 q 676 720 733 640 q 508 800 619 800 q 340 720 397 800 q 282 486 282 640 q 340 251 282 332 m 343 1058 q 315 1072 315 1058 q 324 1093 315 1081 l 414 1235 q 499 1261 431 1261 l 514 1261 q 599 1235 582 1261 l 689 1093 q 697 1072 697 1081 q 669 1058 697 1058 l 639 1058 q 544 1092 567 1058 l 506 1147 l 467 1093 q 374 1058 442 1058 l 343 1058 z "},"Õ":{"ha":1015,"x_min":63,"x_max":953,"o":"m 178 117 q 120 182 178 117 q 63 486 63 246 q 178 855 63 726 q 508 983 293 983 q 838 855 724 983 q 953 486 953 726 q 838 117 953 246 q 508 -11 724 -11 q 178 117 293 -11 m 340 251 q 368 211 340 251 q 508 171 397 171 q 676 251 619 171 q 733 486 733 332 q 676 720 733 640 q 508 800 619 800 q 340 720 397 800 q 282 486 282 640 q 340 251 282 332 m 406 1104 l 343 1089 q 303 1109 321 1089 q 285 1155 285 1129 q 331 1207 285 1181 q 426 1233 378 1233 q 528 1219 474 1233 q 608 1206 583 1206 l 672 1221 q 711 1201 693 1221 q 729 1155 729 1181 q 683 1103 729 1129 q 588 1076 636 1076 q 485 1090 540 1076 q 406 1104 429 1104 z "},"Ö":{"ha":1015,"x_min":63,"x_max":953,"o":"m 178 117 q 120 182 178 117 q 63 486 63 246 q 178 855 63 726 q 508 983 293 983 q 838 855 724 983 q 953 486 953 726 q 838 117 953 246 q 508 -11 724 -11 q 178 117 293 -11 m 340 251 q 368 211 340 251 q 508 171 397 171 q 676 251 619 171 q 733 486 733 332 q 676 720 733 640 q 508 800 619 800 q 340 720 397 800 q 282 486 282 640 q 340 251 282 332 m 715 1097 q 632 1053 715 1053 q 549 1097 549 1053 l 549 1181 q 632 1225 549 1225 q 715 1181 715 1225 l 715 1097 m 465 1097 q 382 1053 465 1053 q 299 1097 299 1053 l 299 1181 q 382 1225 299 1225 q 465 1181 465 1225 l 465 1097 z "},"×":{"ha":778,"x_min":57,"x_max":700,"o":"m 174 28 q 144 15 161 15 q 92 51 128 15 q 57 103 57 86 q 69 132 57 119 l 274 336 l 69 542 q 57 570 57 553 q 92 623 57 588 q 144 658 128 658 q 174 646 161 658 l 378 442 l 583 646 q 612 658 594 658 q 665 623 629 658 q 700 570 700 588 q 688 542 700 553 l 483 336 l 688 132 q 700 103 700 119 q 665 51 700 86 q 612 15 629 15 q 583 28 594 15 l 378 232 l 174 28 z "},"Ø":{"ha":1015,"x_min":26,"x_max":953,"o":"m 92 -17 q 83 -17 92 -17 q 51 6 75 -17 q 26 44 26 28 q 40 75 26 61 l 132 179 q 63 486 63 299 q 178 855 63 726 q 508 983 293 983 q 778 907 672 983 l 850 989 q 881 1006 864 1006 q 923 983 899 1006 q 947 944 947 960 q 933 914 947 928 l 858 829 q 953 473 953 700 q 838 117 953 246 q 519 -11 724 -11 q 204 92 315 -11 l 124 0 q 92 -17 108 -17 m 508 800 q 340 720 397 800 q 282 486 282 640 q 293 361 282 421 l 643 756 q 508 800 590 800 m 343 247 q 510 171 400 171 q 676 251 619 171 q 733 486 733 332 q 707 658 733 586 l 343 247 z "},"Ù":{"ha":989,"x_min":92,"x_max":897,"o":"m 92 325 l 92 931 q 175 975 92 975 l 222 975 q 306 931 306 975 l 306 339 q 358 218 306 265 q 494 171 411 171 q 631 218 578 171 q 685 339 685 265 l 685 931 q 768 975 685 975 l 814 975 q 897 931 897 975 l 897 325 q 792 77 897 165 q 494 -11 686 -11 q 197 77 303 -11 q 92 325 92 165 m 586 1076 q 477 1117 514 1076 q 397 1203 440 1157 q 345 1260 353 1250 q 338 1278 338 1269 q 428 1297 338 1297 q 539 1260 518 1297 q 572 1201 556 1231 q 599 1158 589 1172 q 617 1129 608 1143 q 629 1097 629 1106 q 586 1076 629 1076 z "},"Ú":{"ha":989,"x_min":92,"x_max":897,"o":"m 92 325 l 92 931 q 175 975 92 975 l 222 975 q 306 931 306 975 l 306 339 q 358 218 306 265 q 494 171 411 171 q 631 218 578 171 q 685 339 685 265 l 685 931 q 768 975 685 975 l 814 975 q 897 931 897 975 l 897 325 q 792 77 897 165 q 494 -11 686 -11 q 197 77 303 -11 q 92 325 92 165 m 439 1076 q 396 1097 396 1076 q 416 1142 396 1111 q 453 1201 436 1172 q 486 1260 469 1231 q 597 1297 507 1297 q 688 1278 688 1297 q 679 1258 688 1269 q 646 1222 671 1247 q 611 1185 621 1196 q 582 1153 601 1175 q 543 1111 563 1132 q 439 1076 511 1076 z "},"Û":{"ha":989,"x_min":92,"x_max":897,"o":"m 92 325 l 92 931 q 175 975 92 975 l 222 975 q 306 931 306 975 l 306 339 q 358 218 306 265 q 494 171 411 171 q 631 218 578 171 q 685 339 685 265 l 685 931 q 768 975 685 975 l 814 975 q 897 931 897 975 l 897 325 q 792 77 897 165 q 494 -11 686 -11 q 197 77 303 -11 q 92 325 92 165 m 338 1058 q 310 1072 310 1058 q 318 1093 310 1081 l 408 1235 q 493 1261 425 1261 l 508 1261 q 593 1235 576 1261 l 683 1093 q 692 1072 692 1081 q 664 1058 692 1058 l 633 1058 q 539 1092 561 1058 l 500 1147 l 461 1093 q 368 1058 436 1058 l 338 1058 z "},"Ü":{"ha":989,"x_min":92,"x_max":897,"o":"m 92 325 l 92 931 q 175 975 92 975 l 222 975 q 306 931 306 975 l 306 339 q 358 218 306 265 q 494 171 411 171 q 631 218 578 171 q 685 339 685 265 l 685 931 q 768 975 685 975 l 814 975 q 897 931 897 975 l 897 325 q 792 77 897 165 q 494 -11 686 -11 q 197 77 303 -11 q 92 325 92 165 m 710 1097 q 626 1053 710 1053 q 543 1097 543 1053 l 543 1181 q 626 1225 543 1225 q 710 1181 710 1225 l 710 1097 m 460 1097 q 376 1053 460 1053 q 293 1097 293 1053 l 293 1181 q 376 1225 293 1225 q 460 1181 460 1225 l 460 1097 z "},"Ý":{"ha":776,"x_min":-8,"x_max":785,"o":"m 282 42 l 282 467 l 6 913 q -8 947 -8 936 q 81 975 -8 975 l 140 975 q 224 949 208 975 l 393 651 l 564 949 q 647 975 579 975 l 697 975 q 785 947 785 975 q 772 913 785 933 l 496 463 l 496 42 q 413 -3 496 -3 l 365 -3 q 282 42 282 -3 m 322 1076 q 279 1097 279 1076 q 299 1142 279 1111 q 336 1201 319 1172 q 369 1260 353 1231 q 481 1297 390 1297 q 571 1278 571 1297 q 563 1258 571 1269 q 529 1222 554 1247 q 494 1185 504 1196 q 465 1153 485 1175 q 426 1111 446 1132 q 322 1076 394 1076 z "},"Þ":{"ha":788,"x_min":94,"x_max":782,"o":"m 94 42 l 94 931 q 178 975 94 975 l 225 975 q 308 931 308 975 l 308 824 l 451 824 q 703 742 614 824 q 759 653 736 711 q 782 519 782 596 q 756 385 782 443 q 692 297 729 328 q 608 246 656 265 q 465 215 535 215 l 308 215 l 308 42 q 225 -3 308 -3 l 178 -3 q 94 42 94 -3 m 308 399 l 442 399 q 527 425 492 399 q 563 519 563 451 q 527 615 563 588 q 442 642 492 642 l 308 642 l 308 399 z "},"ß":{"ha":769,"x_min":81,"x_max":740,"o":"m 81 42 l 81 681 q 169 901 81 818 q 396 983 258 983 q 619 917 533 983 q 706 736 706 850 q 576 538 706 590 l 576 532 q 740 292 740 469 q 652 82 740 164 q 415 0 564 0 l 383 0 q 342 69 342 0 l 342 93 q 383 163 342 163 l 403 163 q 497 198 461 163 q 532 294 532 233 q 492 394 532 356 q 383 432 453 432 q 342 501 342 432 l 342 525 q 379 594 342 590 q 465 628 432 596 q 497 703 497 660 q 472 778 497 747 q 396 810 446 810 q 316 778 346 810 q 286 697 286 747 l 286 42 q 203 -3 286 -3 l 164 -3 q 81 42 81 -3 z "},"à":{"ha":757,"x_min":58,"x_max":679,"o":"m 58 192 q 65 263 58 231 q 97 331 72 294 q 164 392 122 368 q 457 450 263 450 l 457 496 q 349 575 457 575 q 200 542 272 575 q 171 531 175 531 q 124 574 150 531 q 99 642 99 617 q 176 708 99 679 q 364 738 253 738 q 663 506 663 738 l 663 244 q 671 100 663 158 l 679 43 q 623 10 679 21 q 539 -1 567 -1 q 502 4 511 -1 q 488 23 493 10 q 479 44 482 36 q 473 71 476 51 q 468 94 469 90 q 382 19 443 50 q 264 -11 321 -11 q 108 44 157 -11 q 58 192 58 100 m 263 213 q 281 168 263 185 q 335 151 299 151 q 406 176 371 151 q 457 239 440 201 l 457 315 q 263 213 263 315 m 479 826 q 370 867 407 826 q 290 953 333 907 q 238 1010 246 1000 q 231 1028 231 1019 q 321 1047 231 1047 q 432 1010 411 1047 q 465 951 449 981 q 492 908 482 922 q 508 879 501 893 q 522 847 522 856 q 479 826 522 826 z "},"á":{"ha":757,"x_min":58,"x_max":679,"o":"m 58 192 q 65 263 58 231 q 97 331 72 294 q 164 392 122 368 q 457 450 263 450 l 457 496 q 349 575 457 575 q 200 542 272 575 q 171 531 175 531 q 124 574 150 531 q 99 642 99 617 q 176 708 99 679 q 364 738 253 738 q 663 506 663 738 l 663 244 q 671 100 663 158 l 679 43 q 623 10 679 21 q 539 -1 567 -1 q 502 4 511 -1 q 488 23 493 10 q 479 44 482 36 q 473 71 476 51 q 468 94 469 90 q 382 19 443 50 q 264 -11 321 -11 q 108 44 157 -11 q 58 192 58 100 m 263 213 q 281 168 263 185 q 335 151 299 151 q 406 176 371 151 q 457 239 440 201 l 457 315 q 263 213 263 315 m 332 826 q 289 847 289 826 q 309 892 289 861 q 346 951 329 922 q 379 1010 363 981 q 490 1047 400 1047 q 581 1028 581 1047 q 572 1008 581 1019 q 539 972 564 997 q 504 935 514 946 q 475 903 494 925 q 436 861 456 882 q 332 826 404 826 z "},"â":{"ha":757,"x_min":58,"x_max":679,"o":"m 58 192 q 65 263 58 231 q 97 331 72 294 q 164 392 122 368 q 457 450 263 450 l 457 496 q 349 575 457 575 q 200 542 272 575 q 171 531 175 531 q 124 574 150 531 q 99 642 99 617 q 176 708 99 679 q 364 738 253 738 q 663 506 663 738 l 663 244 q 671 100 663 158 l 679 43 q 623 10 679 21 q 539 -1 567 -1 q 502 4 511 -1 q 488 23 493 10 q 479 44 482 36 q 473 71 476 51 q 468 94 469 90 q 382 19 443 50 q 264 -11 321 -11 q 108 44 157 -11 q 58 192 58 100 m 263 213 q 281 168 263 185 q 335 151 299 151 q 406 176 371 151 q 457 239 440 201 l 457 315 q 263 213 263 315 m 231 808 q 203 822 203 808 q 211 843 203 831 l 301 985 q 386 1011 318 1011 l 401 1011 q 486 985 469 1011 l 576 843 q 585 822 585 831 q 557 808 585 808 l 526 808 q 432 842 454 808 l 393 897 l 354 843 q 261 808 329 808 l 231 808 z "},"ã":{"ha":757,"x_min":58,"x_max":679,"o":"m 58 192 q 65 263 58 231 q 97 331 72 294 q 164 392 122 368 q 457 450 263 450 l 457 496 q 349 575 457 575 q 200 542 272 575 q 171 531 175 531 q 124 574 150 531 q 99 642 99 617 q 176 708 99 679 q 364 738 253 738 q 663 506 663 738 l 663 244 q 671 100 663 158 l 679 43 q 623 10 679 21 q 539 -1 567 -1 q 502 4 511 -1 q 488 23 493 10 q 479 44 482 36 q 473 71 476 51 q 468 94 469 90 q 382 19 443 50 q 264 -11 321 -11 q 108 44 157 -11 q 58 192 58 100 m 263 213 q 281 168 263 185 q 335 151 299 151 q 406 176 371 151 q 457 239 440 201 l 457 315 q 263 213 263 315 m 293 854 l 231 839 q 190 859 208 839 q 172 905 172 879 q 219 957 172 931 q 313 983 265 983 q 416 969 361 983 q 496 956 471 956 l 560 971 q 599 951 581 971 q 617 905 617 931 q 570 853 617 879 q 476 826 524 826 q 372 840 428 826 q 293 854 317 854 z "},"ä":{"ha":757,"x_min":58,"x_max":679,"o":"m 58 192 q 65 263 58 231 q 97 331 72 294 q 164 392 122 368 q 457 450 263 450 l 457 496 q 349 575 457 575 q 200 542 272 575 q 171 531 175 531 q 124 574 150 531 q 99 642 99 617 q 176 708 99 679 q 364 738 253 738 q 663 506 663 738 l 663 244 q 671 100 663 158 l 679 43 q 623 10 679 21 q 539 -1 567 -1 q 502 4 511 -1 q 488 23 493 10 q 479 44 482 36 q 473 71 476 51 q 468 94 469 90 q 382 19 443 50 q 264 -11 321 -11 q 108 44 157 -11 q 58 192 58 100 m 263 213 q 281 168 263 185 q 335 151 299 151 q 406 176 371 151 q 457 239 440 201 l 457 315 q 263 213 263 315 m 603 847 q 519 803 603 803 q 436 847 436 803 l 436 931 q 519 975 436 975 q 603 931 603 975 l 603 847 m 353 847 q 269 803 353 803 q 186 847 186 803 l 186 931 q 269 975 186 975 q 353 931 353 975 l 353 847 z "},"å":{"ha":757,"x_min":58,"x_max":679,"o":"m 58 192 q 65 263 58 231 q 97 331 72 294 q 164 392 122 368 q 457 450 263 450 l 457 496 q 349 575 457 575 q 200 542 272 575 q 171 531 175 531 q 124 574 150 531 q 99 642 99 617 q 176 708 99 679 q 364 738 253 738 q 663 506 663 738 l 663 244 q 671 100 663 158 l 679 43 q 623 10 679 21 q 539 -1 567 -1 q 502 4 511 -1 q 488 23 493 10 q 479 44 482 36 q 473 71 476 51 q 468 94 469 90 q 382 19 443 50 q 264 -11 321 -11 q 108 44 157 -11 q 58 192 58 100 m 263 213 q 281 168 263 185 q 335 151 299 151 q 406 176 371 151 q 457 239 440 201 l 457 315 q 263 213 263 315 m 493 803 q 473 784 493 803 q 394 764 453 764 q 297 803 336 764 q 257 901 257 843 q 297 1000 257 960 q 394 1040 336 1040 q 493 1000 453 1040 q 533 901 533 960 q 493 803 533 843 m 359 865 q 366 857 359 865 q 394 850 374 850 q 431 865 415 850 q 446 900 446 879 q 431 936 446 921 q 394 951 415 951 q 359 936 374 951 q 344 900 344 921 q 359 865 344 879 z "},"æ":{"ha":1151,"x_min":57,"x_max":1083,"o":"m 57 192 q 64 262 57 231 q 96 329 71 293 q 161 390 121 365 q 451 449 257 449 q 472 538 457 497 q 347 575 443 575 q 234 553 296 575 q 169 531 172 531 q 123 574 149 531 q 97 642 97 617 q 174 708 97 679 q 382 738 251 738 q 586 688 513 738 q 783 738 667 738 q 1011 643 939 738 q 1083 393 1083 549 q 1056 343 1083 375 q 1015 311 1029 311 l 661 311 q 706 189 661 226 q 810 151 750 151 q 928 173 871 151 q 986 194 985 194 q 1033 153 1007 194 q 1058 89 1058 113 q 972 16 1058 43 q 808 -11 885 -11 q 538 83 632 -11 q 438 19 504 50 q 276 -11 372 -11 q 118 46 179 -11 q 57 192 57 103 m 883 449 q 856 542 883 508 q 783 575 829 575 q 658 449 678 575 l 883 449 m 261 213 q 279 168 261 185 q 333 151 297 151 q 407 169 369 151 q 464 217 444 186 q 447 313 451 261 q 261 213 261 311 z "},"ç":{"ha":674,"x_min":58,"x_max":651,"o":"m 194 -172 q 202 -165 194 -172 q 222 -157 210 -157 q 276 -172 235 -157 q 349 -186 317 -186 q 382 -162 382 -186 q 345 -128 382 -144 q 308 -97 308 -112 q 333 -7 308 -81 q 58 358 58 28 q 145 642 58 547 q 415 738 232 738 q 573 712 500 738 q 646 642 646 686 q 617 578 646 621 q 572 535 589 535 q 547 544 567 535 q 415 575 486 575 q 307 524 344 575 q 269 364 269 472 q 305 203 269 256 q 413 151 340 151 q 554 183 486 151 q 579 192 576 192 q 626 151 600 192 q 651 86 651 110 q 576 17 651 40 q 425 -11 501 -6 l 417 -43 q 525 -149 525 -65 q 360 -287 525 -287 q 236 -268 294 -287 q 178 -218 178 -249 q 194 -172 178 -187 z "},"è":{"ha":749,"x_min":58,"x_max":696,"o":"m 421 -11 q 148 87 238 -11 q 58 369 58 185 q 148 646 58 554 q 394 738 238 738 q 623 638 550 738 q 696 379 696 538 q 667 330 696 363 q 625 297 639 297 l 271 297 q 318 185 278 218 q 421 151 358 151 q 540 173 483 151 q 599 194 597 194 q 645 153 619 194 q 671 89 671 113 q 584 16 671 43 q 421 -11 497 -11 m 496 435 q 471 537 496 499 q 396 575 446 575 q 271 435 293 575 l 496 435 m 474 826 q 365 867 401 826 q 284 953 328 907 q 233 1010 240 1000 q 225 1028 225 1019 q 315 1047 225 1047 q 426 1010 406 1047 q 460 951 443 981 q 486 908 476 922 q 503 879 496 893 q 517 847 517 856 q 474 826 517 826 z "},"é":{"ha":749,"x_min":58,"x_max":696,"o":"m 421 -11 q 148 87 238 -11 q 58 369 58 185 q 148 646 58 554 q 394 738 238 738 q 623 638 550 738 q 696 379 696 538 q 667 330 696 363 q 625 297 639 297 l 271 297 q 318 185 278 218 q 421 151 358 151 q 540 173 483 151 q 599 194 597 194 q 645 153 619 194 q 671 89 671 113 q 584 16 671 43 q 421 -11 497 -11 m 496 435 q 471 537 496 499 q 396 575 446 575 q 271 435 293 575 l 496 435 m 326 826 q 283 847 283 826 q 303 892 283 861 q 340 951 324 922 q 374 1010 357 981 q 485 1047 394 1047 q 575 1028 575 1047 q 567 1008 575 1019 q 533 972 558 997 q 499 935 508 946 q 469 903 489 925 q 431 861 450 882 q 326 826 399 826 z "},"ê":{"ha":749,"x_min":58,"x_max":696,"o":"m 421 -11 q 148 87 238 -11 q 58 369 58 185 q 148 646 58 554 q 394 738 238 738 q 623 638 550 738 q 696 379 696 538 q 667 330 696 363 q 625 297 639 297 l 271 297 q 318 185 278 218 q 421 151 358 151 q 540 173 483 151 q 599 194 597 194 q 645 153 619 194 q 671 89 671 113 q 584 16 671 43 q 421 -11 497 -11 m 496 435 q 471 537 496 499 q 396 575 446 575 q 271 435 293 575 l 496 435 m 225 808 q 197 822 197 808 q 206 843 197 831 l 296 985 q 381 1011 313 1011 l 396 1011 q 481 985 464 1011 l 571 843 q 579 822 579 831 q 551 808 579 808 l 521 808 q 426 842 449 808 l 388 897 l 349 843 q 256 808 324 808 l 225 808 z "},"ë":{"ha":749,"x_min":58,"x_max":696,"o":"m 421 -11 q 148 87 238 -11 q 58 369 58 185 q 148 646 58 554 q 394 738 238 738 q 623 638 550 738 q 696 379 696 538 q 667 330 696 363 q 625 297 639 297 l 271 297 q 318 185 278 218 q 421 151 358 151 q 540 173 483 151 q 599 194 597 194 q 645 153 619 194 q 671 89 671 113 q 584 16 671 43 q 421 -11 497 -11 m 496 435 q 471 537 496 499 q 396 575 446 575 q 271 435 293 575 l 496 435 m 597 847 q 514 803 597 803 q 431 847 431 803 l 431 931 q 514 975 431 975 q 597 931 597 975 l 597 847 m 347 847 q 264 803 347 803 q 181 847 181 803 l 181 931 q 264 975 181 975 q 347 931 347 975 l 347 847 z "},"ì":{"ha":368,"x_min":21,"x_max":313,"o":"m 82 42 l 82 685 q 165 729 82 729 l 204 729 q 288 685 288 729 l 288 42 q 204 -3 288 -3 l 165 -3 q 82 42 82 -3 m 269 826 q 160 867 197 826 q 80 953 124 907 q 28 1010 36 1000 q 21 1028 21 1019 q 111 1047 21 1047 q 222 1010 201 1047 q 256 951 239 981 q 282 908 272 922 q 300 879 292 893 q 313 847 313 856 q 269 826 313 826 z "},"í":{"ha":368,"x_min":79,"x_max":371,"o":"m 82 42 l 82 685 q 165 729 82 729 l 204 729 q 288 685 288 729 l 288 42 q 204 -3 288 -3 l 165 -3 q 82 42 82 -3 m 122 826 q 79 847 79 826 q 99 892 79 861 q 136 951 119 922 q 169 1010 153 981 q 281 1047 190 1047 q 371 1028 371 1047 q 363 1008 371 1019 q 329 972 354 997 q 294 935 304 946 q 265 903 285 925 q 226 861 246 882 q 122 826 194 826 z "},"î":{"ha":368,"x_min":-7,"x_max":375,"o":"m 82 42 l 82 685 q 165 729 82 729 l 204 729 q 288 685 288 729 l 288 42 q 204 -3 288 -3 l 165 -3 q 82 42 82 -3 m 21 808 q -7 822 -7 808 q 1 843 -7 831 l 92 985 q 176 1011 108 1011 l 192 1011 q 276 985 260 1011 l 367 843 q 375 822 375 831 q 347 808 375 808 l 317 808 q 222 842 244 808 l 183 897 l 144 843 q 51 808 119 808 l 21 808 z "},"ï":{"ha":368,"x_min":-24,"x_max":393,"o":"m 82 42 l 82 685 q 165 729 82 729 l 204 729 q 288 685 288 729 l 288 42 q 204 -3 288 -3 l 165 -3 q 82 42 82 -3 m 393 847 q 310 803 393 803 q 226 847 226 803 l 226 931 q 310 975 226 975 q 393 931 393 975 l 393 847 m 143 847 q 60 803 143 803 q -24 847 -24 803 l -24 931 q 60 975 -24 975 q 143 931 143 975 l 143 847 z "},"ð":{"ha":790,"x_min":58,"x_max":732,"o":"m 144 85 q 101 134 144 85 q 58 364 58 182 q 144 642 58 546 q 396 738 231 738 q 467 732 422 738 q 422 818 450 769 q 331 807 346 807 q 300 825 317 807 q 283 865 283 843 q 313 888 283 883 l 372 896 q 351 921 367 903 q 319 967 319 958 q 346 983 319 979 l 432 993 q 486 976 465 993 q 540 918 504 963 q 642 931 632 931 q 669 912 653 931 q 686 872 686 893 q 657 850 686 854 l 593 842 q 692 624 651 753 q 732 364 732 496 q 647 85 732 182 q 396 -11 561 -11 q 144 85 231 -11 m 267 363 q 267 257 267 363 q 395 151 267 151 q 524 363 524 151 q 395 575 524 575 q 267 363 267 575 z "},"ñ":{"ha":774,"x_min":69,"x_max":692,"o":"m 86 42 l 86 482 q 78 628 86 586 q 69 678 69 669 q 126 711 69 700 q 210 722 182 722 q 247 717 238 722 q 261 699 256 711 q 269 680 267 688 q 276 654 272 672 q 281 632 279 636 q 369 707 314 676 q 488 738 425 738 q 642 683 592 738 q 692 513 692 628 l 692 42 q 608 -3 692 -3 l 569 -3 q 486 42 486 -3 l 486 482 q 403 568 486 568 q 292 488 333 568 l 292 42 q 208 -3 292 -3 l 169 -3 q 86 42 86 -3 m 296 854 l 233 839 q 193 859 211 839 q 175 905 175 879 q 222 957 175 931 q 316 983 268 983 q 419 969 364 983 q 499 956 474 956 l 563 971 q 601 951 583 971 q 619 905 619 931 q 573 853 619 879 q 478 826 526 826 q 375 840 431 826 q 296 854 319 854 z "},"ò":{"ha":790,"x_min":58,"x_max":732,"o":"m 144 85 q 101 134 144 85 q 58 364 58 182 q 144 642 58 546 q 396 738 231 738 q 647 642 561 738 q 732 364 732 546 q 647 85 732 182 q 396 -11 561 -11 q 144 85 231 -11 m 267 363 q 267 257 267 363 q 395 151 267 151 q 524 363 524 151 q 395 575 524 575 q 267 363 267 575 m 479 826 q 370 867 407 826 q 290 953 333 907 q 238 1010 246 1000 q 231 1028 231 1019 q 321 1047 231 1047 q 432 1010 411 1047 q 465 951 449 981 q 492 908 482 922 q 508 879 501 893 q 522 847 522 856 q 479 826 522 826 z "},"ó":{"ha":790,"x_min":58,"x_max":732,"o":"m 144 85 q 101 134 144 85 q 58 364 58 182 q 144 642 58 546 q 396 738 231 738 q 647 642 561 738 q 732 364 732 546 q 647 85 732 182 q 396 -11 561 -11 q 144 85 231 -11 m 267 363 q 267 257 267 363 q 395 151 267 151 q 524 363 524 151 q 395 575 524 575 q 267 363 267 575 m 332 826 q 289 847 289 826 q 309 892 289 861 q 346 951 329 922 q 379 1010 363 981 q 490 1047 400 1047 q 581 1028 581 1047 q 572 1008 581 1019 q 539 972 564 997 q 504 935 514 946 q 475 903 494 925 q 436 861 456 882 q 332 826 404 826 z "},"ô":{"ha":790,"x_min":58,"x_max":732,"o":"m 144 85 q 101 134 144 85 q 58 364 58 182 q 144 642 58 546 q 396 738 231 738 q 647 642 561 738 q 732 364 732 546 q 647 85 732 182 q 396 -11 561 -11 q 144 85 231 -11 m 267 363 q 267 257 267 363 q 395 151 267 151 q 524 363 524 151 q 395 575 524 575 q 267 363 267 575 m 231 808 q 203 822 203 808 q 211 843 203 831 l 301 985 q 386 1011 318 1011 l 401 1011 q 486 985 469 1011 l 576 843 q 585 822 585 831 q 557 808 585 808 l 526 808 q 432 842 454 808 l 393 897 l 354 843 q 261 808 329 808 l 231 808 z "},"õ":{"ha":790,"x_min":58,"x_max":732,"o":"m 144 85 q 101 134 144 85 q 58 364 58 182 q 144 642 58 546 q 396 738 231 738 q 647 642 561 738 q 732 364 732 546 q 647 85 732 182 q 396 -11 561 -11 q 144 85 231 -11 m 267 363 q 267 257 267 363 q 395 151 267 151 q 524 363 524 151 q 395 575 524 575 q 267 363 267 575 m 293 854 l 231 839 q 190 859 208 839 q 172 905 172 879 q 219 957 172 931 q 313 983 265 983 q 416 969 361 983 q 496 956 471 956 l 560 971 q 599 951 581 971 q 617 905 617 931 q 570 853 617 879 q 476 826 524 826 q 372 840 428 826 q 293 854 317 854 z "},"ö":{"ha":790,"x_min":58,"x_max":732,"o":"m 144 85 q 101 134 144 85 q 58 364 58 182 q 144 642 58 546 q 396 738 231 738 q 647 642 561 738 q 732 364 732 546 q 647 85 732 182 q 396 -11 561 -11 q 144 85 231 -11 m 267 363 q 267 257 267 363 q 395 151 267 151 q 524 363 524 151 q 395 575 524 575 q 267 363 267 575 m 603 847 q 519 803 603 803 q 436 847 436 803 l 436 931 q 519 975 436 975 q 603 931 603 975 l 603 847 m 353 847 q 269 803 353 803 q 186 847 186 803 l 186 931 q 269 975 186 975 q 353 931 353 975 l 353 847 z "},"÷":{"ha":778,"x_min":39,"x_max":739,"o":"m 297 486 l 297 585 q 381 629 297 629 l 396 629 q 479 585 479 629 l 479 486 q 396 442 479 442 l 381 442 q 297 486 297 442 m 81 239 q 39 308 39 239 l 39 318 q 81 388 39 388 l 697 388 q 739 318 739 388 l 739 308 q 697 239 739 239 l 81 239 m 297 42 l 297 140 q 381 185 297 185 l 396 185 q 479 140 479 185 l 479 42 q 396 -3 479 -3 l 381 -3 q 297 42 297 -3 z "},"ø":{"ha":790,"x_min":54,"x_max":736,"o":"m 119 -17 q 111 -17 119 -17 q 78 4 103 -17 q 54 42 54 25 q 68 74 54 58 l 114 126 q 58 364 58 217 q 144 642 58 546 q 396 738 231 738 q 594 686 515 738 l 639 738 q 670 756 654 756 q 711 733 686 756 q 736 697 736 711 q 722 665 736 682 l 672 607 q 732 364 732 513 q 647 85 732 182 q 396 -11 561 -11 q 189 46 269 -11 l 150 1 q 119 -17 136 -17 m 396 575 q 267 364 267 575 q 269 307 267 343 l 474 546 q 396 575 444 575 m 396 151 q 524 364 524 151 q 519 431 524 400 l 311 188 q 396 151 343 151 z "},"ù":{"ha":774,"x_min":82,"x_max":704,"o":"m 82 214 l 82 685 q 165 729 82 729 l 204 729 q 288 685 288 729 l 288 244 q 371 158 288 158 q 482 239 440 158 l 482 685 q 565 729 482 729 l 604 729 q 688 685 688 729 l 688 244 q 696 100 688 158 l 704 43 q 648 10 704 21 q 564 -1 592 -1 q 527 4 536 -1 q 513 23 518 10 q 504 44 507 36 q 498 71 501 51 q 493 94 494 90 q 405 19 460 50 q 286 -11 350 -11 q 132 44 182 -11 q 82 214 82 99 m 482 826 q 373 867 410 826 q 292 953 336 907 q 241 1010 249 1000 q 233 1028 233 1019 q 324 1047 233 1047 q 435 1010 414 1047 q 468 951 451 981 q 494 908 485 922 q 511 879 504 893 q 525 847 525 856 q 482 826 525 826 z "},"ú":{"ha":774,"x_min":82,"x_max":704,"o":"m 82 214 l 82 685 q 165 729 82 729 l 204 729 q 288 685 288 729 l 288 244 q 371 158 288 158 q 482 239 440 158 l 482 685 q 565 729 482 729 l 604 729 q 688 685 688 729 l 688 244 q 696 100 688 158 l 704 43 q 648 10 704 21 q 564 -1 592 -1 q 527 4 536 -1 q 513 23 518 10 q 504 44 507 36 q 498 71 501 51 q 493 94 494 90 q 405 19 460 50 q 286 -11 350 -11 q 132 44 182 -11 q 82 214 82 99 m 335 826 q 292 847 292 826 q 312 892 292 861 q 349 951 332 922 q 382 1010 365 981 q 493 1047 403 1047 q 583 1028 583 1047 q 575 1008 583 1019 q 542 972 567 997 q 507 935 517 946 q 478 903 497 925 q 439 861 458 882 q 335 826 407 826 z "},"û":{"ha":774,"x_min":82,"x_max":704,"o":"m 82 214 l 82 685 q 165 729 82 729 l 204 729 q 288 685 288 729 l 288 244 q 371 158 288 158 q 482 239 440 158 l 482 685 q 565 729 482 729 l 604 729 q 688 685 688 729 l 688 244 q 696 100 688 158 l 704 43 q 648 10 704 21 q 564 -1 592 -1 q 527 4 536 -1 q 513 23 518 10 q 504 44 507 36 q 498 71 501 51 q 493 94 494 90 q 405 19 460 50 q 286 -11 350 -11 q 132 44 182 -11 q 82 214 82 99 m 233 808 q 206 822 206 808 q 214 843 206 831 l 304 985 q 389 1011 321 1011 l 404 1011 q 489 985 472 1011 l 579 843 q 588 822 588 831 q 560 808 588 808 l 529 808 q 435 842 457 808 l 396 897 l 357 843 q 264 808 332 808 l 233 808 z "},"ü":{"ha":774,"x_min":82,"x_max":704,"o":"m 82 214 l 82 685 q 165 729 82 729 l 204 729 q 288 685 288 729 l 288 244 q 371 158 288 158 q 482 239 440 158 l 482 685 q 565 729 482 729 l 604 729 q 688 685 688 729 l 688 244 q 696 100 688 158 l 704 43 q 648 10 704 21 q 564 -1 592 -1 q 527 4 536 -1 q 513 23 518 10 q 504 44 507 36 q 498 71 501 51 q 493 94 494 90 q 405 19 460 50 q 286 -11 350 -11 q 132 44 182 -11 q 82 214 82 99 m 606 847 q 522 803 606 803 q 439 847 439 803 l 439 931 q 522 975 439 975 q 606 931 606 975 l 606 847 m 356 847 q 272 803 356 803 q 189 847 189 803 l 189 931 q 272 975 189 975 q 356 931 356 975 l 356 847 z "},"ý":{"ha":668,"x_min":14,"x_max":663,"o":"m 14 699 q 99 729 14 729 l 143 729 q 221 700 211 729 l 303 443 q 342 275 315 404 l 347 275 q 386 443 375 408 l 468 700 q 546 729 478 729 l 579 729 q 663 699 663 729 q 658 674 663 689 l 340 -257 q 263 -286 329 -286 l 239 -286 q 156 -257 156 -286 q 161 -232 156 -244 l 249 0 l 19 674 q 14 699 14 693 m 278 826 q 235 847 235 826 q 255 892 235 861 q 292 951 275 922 q 325 1010 308 981 q 436 1047 346 1047 q 526 1028 526 1047 q 518 1008 526 1019 q 485 972 510 997 q 450 935 460 946 q 421 903 440 925 q 382 861 401 882 q 278 826 350 826 z "},"þ":{"ha":792,"x_min":90,"x_max":731,"o":"m 90 -242 l 90 1003 q 174 1047 90 1047 l 213 1047 q 296 1003 296 1047 l 296 653 q 470 738 354 738 q 658 638 586 738 q 731 365 731 539 q 653 90 731 190 q 438 -11 576 -11 q 296 32 356 -11 l 296 -242 q 213 -286 296 -286 l 174 -286 q 90 -242 90 -286 m 393 151 q 522 360 522 151 q 410 569 522 569 q 296 488 343 569 l 296 178 q 393 151 343 151 z "},"ÿ":{"ha":668,"x_min":14,"x_max":663,"o":"m 14 699 q 99 729 14 729 l 143 729 q 221 700 211 729 l 303 443 q 342 275 315 404 l 347 275 q 386 443 375 408 l 468 700 q 546 729 478 729 l 579 729 q 663 699 663 729 q 658 674 663 689 l 340 -257 q 263 -286 329 -286 l 239 -286 q 156 -257 156 -286 q 161 -232 156 -244 l 249 0 l 19 674 q 14 699 14 693 m 549 847 q 465 803 549 803 q 382 847 382 803 l 382 931 q 465 975 382 975 q 549 931 549 975 l 549 847 m 299 847 q 215 803 299 803 q 132 847 132 803 l 132 931 q 215 975 132 975 q 299 931 299 975 l 299 847 z "},"ı":{"ha":368,"x_min":82,"x_max":288,"o":"m 82 42 l 82 685 q 165 729 82 729 l 204 729 q 288 685 288 729 l 288 42 q 204 -3 288 -3 l 165 -3 q 82 42 82 -3 z "},"Ł":{"ha":675,"x_min":36,"x_max":664,"o":"m 99 56 l 99 418 l 72 401 q 51 394 61 394 q 36 422 36 394 l 36 450 q 72 513 36 490 l 99 529 l 99 931 q 182 975 99 975 l 229 975 q 313 931 313 975 l 313 660 l 433 733 q 454 742 446 742 q 469 714 469 742 l 469 686 q 433 622 469 644 l 313 549 l 313 182 l 622 182 q 664 113 664 182 l 664 69 q 622 0 664 0 l 154 0 q 99 56 99 0 z "},"ł":{"ha":407,"x_min":15,"x_max":418,"o":"m 338 151 l 375 157 q 406 116 393 157 q 418 57 418 75 q 285 -11 418 -11 q 82 214 82 -11 l 82 449 l 51 431 q 29 422 38 422 q 15 450 15 422 l 15 478 q 51 542 15 519 l 82 560 l 82 1003 q 165 1047 82 1047 l 204 1047 q 288 1003 288 1047 l 288 683 l 321 704 q 342 711 335 711 q 357 683 357 711 l 357 656 q 321 593 357 615 l 288 572 l 288 211 q 338 151 288 151 z "},"Œ":{"ha":1418,"x_min":63,"x_max":1343,"o":"m 174 117 q 118 182 174 117 q 63 486 63 246 q 174 855 63 726 q 494 983 286 983 q 736 919 635 983 q 792 972 736 972 l 1300 972 q 1342 903 1342 972 l 1342 860 q 1300 790 1342 790 l 950 790 l 950 589 l 1263 589 q 1304 519 1304 589 l 1304 476 q 1263 407 1304 407 l 950 407 l 950 182 l 1301 182 q 1343 113 1343 182 l 1343 69 q 1301 0 1343 0 l 792 0 q 736 51 738 0 q 494 -11 633 -11 q 174 117 286 -11 m 340 251 q 368 211 340 251 q 508 171 397 171 q 676 251 619 171 q 733 486 733 332 q 676 720 733 640 q 508 800 619 800 q 340 720 397 800 q 282 486 282 640 q 340 251 282 332 z "},"œ":{"ha":1210,"x_min":57,"x_max":1161,"o":"m 143 85 q 100 134 143 85 q 57 364 57 182 q 143 642 57 546 q 382 738 229 738 q 626 653 535 738 q 867 738 719 738 q 1088 638 1015 738 q 1161 379 1161 538 q 1133 330 1161 363 q 1090 297 1104 297 l 736 297 q 783 185 743 218 q 886 151 824 151 q 1006 173 949 151 q 1064 194 1063 194 q 1110 153 1085 194 q 1136 89 1136 113 q 1049 16 1136 43 q 886 -11 963 -11 q 631 75 728 -11 q 383 -11 538 -11 q 143 85 229 -11 m 961 435 q 936 537 961 499 q 861 575 911 575 q 736 435 758 575 l 961 435 m 265 363 q 265 257 265 363 q 394 151 265 151 q 522 363 522 151 q 394 575 522 575 q 265 363 265 575 z "},"Š":{"ha":694,"x_min":31,"x_max":671,"o":"m 31 111 q 63 189 31 143 q 117 235 94 235 q 153 219 125 235 q 321 171 239 171 q 451 272 451 171 q 410 347 451 317 q 309 401 368 378 q 192 453 250 424 q 92 546 133 483 q 50 702 50 608 q 100 863 50 796 q 379 983 190 983 q 557 953 485 983 q 629 886 629 922 q 603 810 629 856 q 553 765 576 765 q 528 775 547 765 q 399 800 472 800 q 298 775 326 800 q 269 713 269 750 q 311 646 269 675 q 411 594 353 617 q 528 542 469 572 q 629 450 588 513 q 671 301 671 388 q 644 152 671 214 q 569 56 617 90 q 344 -11 478 -11 q 121 29 211 -11 q 31 111 31 69 m 340 1090 q 256 1117 272 1090 l 165 1258 q 157 1279 157 1271 q 185 1293 157 1293 l 215 1293 q 308 1258 283 1293 l 347 1204 l 386 1260 q 481 1293 408 1293 l 511 1293 q 539 1279 539 1293 q 531 1258 539 1271 l 440 1117 q 356 1090 424 1090 l 340 1090 z "},"š":{"ha":574,"x_min":43,"x_max":546,"o":"m 43 88 q 69 150 43 110 q 117 190 96 190 q 167 171 119 190 q 253 151 214 151 q 338 214 338 151 q 309 267 338 247 q 240 301 281 288 q 158 335 199 315 q 88 399 117 354 q 60 513 60 443 q 128 677 60 617 q 315 738 197 738 q 421 726 371 738 q 521 650 521 704 q 500 590 521 632 q 461 547 479 547 q 420 562 460 547 q 343 576 381 576 q 268 526 268 576 q 297 481 268 499 q 366 449 325 464 q 448 413 407 435 q 517 345 489 392 q 546 231 546 299 q 474 55 546 121 q 295 -11 403 -11 q 115 15 188 -11 q 43 88 43 40 m 299 808 q 214 835 231 808 l 124 976 q 115 997 115 989 q 143 1011 115 1011 l 174 1011 q 267 976 242 1011 l 306 922 l 344 978 q 439 1011 367 1011 l 469 1011 q 497 997 497 1011 q 489 976 497 989 l 399 835 q 314 808 382 808 l 299 808 z "},"Ÿ":{"ha":776,"x_min":-8,"x_max":785,"o":"m 282 42 l 282 467 l 6 913 q -8 947 -8 936 q 81 975 -8 975 l 140 975 q 224 949 208 975 l 393 651 l 564 949 q 647 975 579 975 l 697 975 q 785 947 785 975 q 772 913 785 933 l 496 463 l 496 42 q 413 -3 496 -3 l 365 -3 q 282 42 282 -3 m 593 1097 q 510 1053 593 1053 q 426 1097 426 1053 l 426 1181 q 510 1225 426 1225 q 593 1181 593 1225 l 593 1097 m 343 1097 q 260 1053 343 1053 q 176 1097 176 1053 l 176 1181 q 260 1225 176 1225 q 343 1181 343 1225 l 343 1097 z "},"Ž":{"ha":856,"x_min":38,"x_max":806,"o":"m 92 0 q 56 47 75 0 q 38 113 38 93 q 40 138 38 132 l 506 790 l 119 790 q 78 860 78 790 l 78 903 q 119 972 78 972 l 754 972 q 788 924 769 972 q 806 856 806 875 q 804 833 806 836 l 340 182 l 764 182 q 806 113 806 182 l 806 69 q 764 0 806 0 l 92 0 m 413 1058 q 328 1085 344 1058 l 238 1226 q 229 1247 229 1239 q 257 1261 229 1261 l 288 1261 q 381 1226 356 1261 l 419 1172 l 458 1228 q 553 1261 481 1261 l 583 1261 q 611 1247 611 1261 q 603 1226 611 1239 l 513 1085 q 428 1058 496 1058 l 413 1058 z "},"ž":{"ha":679,"x_min":38,"x_max":639,"o":"m 78 0 q 51 38 65 0 q 38 98 38 76 q 42 125 38 119 l 360 564 l 101 564 q 60 633 60 564 l 60 657 q 101 726 60 726 l 593 726 q 619 688 604 726 q 633 627 633 649 q 629 599 633 606 l 313 163 l 597 163 q 639 93 639 163 l 639 69 q 597 0 639 0 l 78 0 m 339 808 q 254 835 271 808 l 164 976 q 156 997 156 989 q 183 1011 156 1011 l 214 1011 q 307 976 282 1011 l 346 922 l 385 978 q 479 1011 407 1011 l 510 1011 q 538 997 538 1011 q 529 976 538 989 l 439 835 q 354 808 422 808 l 339 808 z "},"ƒ":{"ha":461,"x_min":-18,"x_max":496,"o":"m 439 888 l 397 893 q 339 833 347 893 l 324 726 l 393 726 q 426 683 426 726 q 421 632 426 665 q 369 564 410 564 l 300 564 l 188 -243 q 99 -287 181 -287 l 60 -287 q -2 -277 14 -287 q -18 -243 -18 -267 l 94 564 l 69 564 q 35 607 35 564 q 61 710 35 678 q 93 726 74 726 l 118 726 l 132 831 q 367 1056 163 1056 q 496 988 496 1056 q 476 927 496 967 q 439 888 457 888 z "},"ˆ":{"ha":444,"x_min":26,"x_max":408,"o":"m 54 808 q 26 822 26 808 q 35 843 26 831 l 125 985 q 210 1011 142 1011 l 225 1011 q 310 985 293 1011 l 400 843 q 408 822 408 831 q 381 808 408 808 l 350 808 q 256 842 278 808 l 217 897 l 178 843 q 85 808 153 808 l 54 808 z "},"ˇ":{"ha":444,"x_min":26,"x_max":408,"o":"m 210 808 q 125 835 142 808 l 35 976 q 26 997 26 989 q 54 1011 26 1011 l 85 1011 q 178 976 153 1011 l 217 922 l 256 978 q 350 1011 278 1011 l 381 1011 q 408 997 408 1011 q 400 976 408 989 l 310 835 q 225 808 293 808 l 210 808 z "},"˘":{"ha":444,"x_min":15,"x_max":424,"o":"m 365 846 q 336 822 365 846 q 219 799 307 799 q 74 846 132 799 q 15 954 15 893 q 64 993 15 993 q 117 958 94 993 q 153 935 126 946 q 219 925 179 925 q 286 935 260 925 q 322 958 313 946 q 375 993 344 993 q 424 954 424 993 q 365 846 424 893 z "},"˙":{"ha":444,"x_min":142,"x_max":308,"o":"m 308 847 q 225 803 308 803 q 142 847 142 803 l 142 931 q 225 975 142 975 q 308 931 308 975 l 308 847 z "},"˚":{"ha":444,"x_min":85,"x_max":361,"o":"m 321 803 q 301 784 321 803 q 222 764 281 764 q 124 803 164 764 q 85 901 85 843 q 124 1000 85 960 q 222 1040 164 1040 q 321 1000 281 1040 q 361 901 361 960 q 321 803 361 843 m 187 865 q 194 857 187 865 q 222 850 201 850 q 258 865 243 850 q 274 900 274 879 q 258 936 274 921 q 222 951 243 951 q 187 936 201 951 q 172 900 172 921 q 187 865 172 879 z "},"˛":{"ha":444,"x_min":75,"x_max":353,"o":"m 101 -197 q 93 -185 101 -197 q 81 -152 86 -172 q 75 -110 75 -132 q 80 -62 75 -89 q 104 -8 85 -36 q 153 19 124 19 q 183 -7 183 19 q 176 -40 183 -15 q 168 -86 168 -64 q 254 -157 168 -157 q 292 -151 272 -157 q 322 -146 311 -146 q 353 -185 353 -146 q 239 -254 353 -254 q 151 -238 188 -254 q 101 -197 115 -222 z "},"˜":{"ha":507,"x_min":32,"x_max":476,"o":"m 153 854 l 90 839 q 50 859 68 839 q 32 905 32 879 q 78 957 32 931 q 173 983 125 983 q 276 969 221 983 q 356 956 331 956 l 419 971 q 458 951 440 971 q 476 905 476 931 q 430 853 476 879 q 335 826 383 826 q 232 840 288 826 q 153 854 176 854 z "},"˝":{"ha":533,"x_min":-11,"x_max":535,"o":"m 286 826 q 243 847 243 826 q 263 892 243 861 q 300 951 283 922 q 333 1010 317 981 q 444 1047 354 1047 q 535 1028 535 1047 q 526 1008 535 1019 q 493 972 518 997 q 458 935 468 946 q 429 903 449 925 q 390 861 410 882 q 286 826 358 826 m 32 826 q -11 847 -11 826 q 9 892 -11 861 q 46 951 29 922 q 79 1010 63 981 q 190 1047 100 1047 q 281 1028 281 1047 q 272 1008 281 1019 q 239 972 264 997 q 204 935 214 946 q 175 903 194 925 q 136 861 156 882 q 32 826 104 826 z "},"π":{"ha":856,"x_min":7,"x_max":835,"o":"m 81 29 q 83 43 81 32 q 147 293 119 147 q 181 564 175 439 q 90 556 121 564 q 57 547 60 547 q 22 576 35 547 q 7 657 7 613 q 225 726 7 726 l 788 726 q 835 683 835 726 q 829 610 835 679 q 778 564 825 564 l 713 564 l 713 214 q 716 116 713 147 q 721 70 719 85 q 724 48 722 56 q 725 39 725 40 q 640 -3 725 -3 l 603 -3 q 511 165 511 -3 l 511 564 l 382 564 q 347 278 375 432 q 283 38 319 125 q 186 -3 267 -3 l 168 -3 q 104 6 128 -3 q 81 29 81 15 z "},"–":{"ha":694,"x_min":0,"x_max":694,"o":"m 42 294 q 0 364 0 294 l 0 374 q 42 443 0 443 l 653 443 q 694 374 694 443 l 694 364 q 653 294 694 294 l 42 294 z "},"—":{"ha":1389,"x_min":0,"x_max":1389,"o":"m 42 294 q 0 364 0 294 l 0 374 q 42 443 0 443 l 1347 443 q 1389 374 1389 443 l 1389 364 q 1347 294 1389 294 l 42 294 z "},"‘":{"ha":294,"x_min":15,"x_max":269,"o":"m 99 664 q 15 725 15 664 q 51 877 15 799 q 131 1003 86 956 q 203 1051 176 1051 q 249 1044 229 1051 q 269 1022 269 1036 q 254 972 269 1007 q 208 725 208 865 q 125 664 208 664 l 99 664 z "},"’":{"ha":294,"x_min":26,"x_max":281,"o":"m 245 838 q 227 799 245 838 q 165 712 210 760 q 93 664 119 664 q 47 672 67 664 q 26 694 26 679 q 42 744 26 708 q 88 990 88 850 q 171 1051 88 1051 l 197 1051 q 281 990 281 1051 q 245 838 281 917 z "},"‚":{"ha":275,"x_min":17,"x_max":271,"o":"m 83 -174 q 70 -174 83 -174 q 37 -166 57 -174 q 17 -144 17 -158 q 32 -94 17 -129 q 78 153 78 13 q 161 214 78 214 l 188 214 q 271 153 271 214 q 235 1 271 79 q 155 -126 200 -78 q 83 -174 110 -174 z "},"“":{"ha":486,"x_min":-12,"x_max":489,"o":"m 318 664 q 235 725 235 664 q 270 877 235 799 q 351 1003 306 956 q 422 1051 396 1051 q 469 1044 449 1051 q 489 1022 489 1036 q 474 972 489 1007 q 428 725 428 865 q 344 664 428 664 l 318 664 m 71 664 q -12 725 -12 664 q 23 877 -12 799 q 103 1003 58 956 q 175 1051 149 1051 q 222 1044 201 1051 q 242 1022 242 1036 q 226 972 242 1007 q 181 725 181 865 q 97 664 181 664 l 71 664 z "},"”":{"ha":486,"x_min":0,"x_max":501,"o":"m 466 838 q 448 799 466 838 q 385 712 431 760 q 314 664 340 664 q 267 672 288 664 q 247 694 247 679 q 263 744 247 708 q 308 990 308 850 q 392 1051 308 1051 l 418 1051 q 501 990 501 1051 q 466 838 501 917 m 219 838 q 201 799 219 838 q 138 712 183 760 q 67 664 93 664 q 20 672 40 664 q 0 694 0 679 q 15 744 0 708 q 61 990 61 850 q 144 1051 61 1051 l 171 1051 q 254 990 254 1051 q 219 838 254 917 z "},"„":{"ha":467,"x_min":-11,"x_max":490,"o":"m 303 -174 q 290 -174 303 -174 q 256 -166 276 -174 q 236 -144 236 -158 q 251 -94 236 -129 q 297 153 297 13 q 381 214 297 214 l 407 214 q 490 153 490 214 q 455 1 490 79 q 374 -126 419 -78 q 303 -174 329 -174 m 56 -174 q 42 -174 56 -174 q 9 -166 29 -174 q -11 -144 -11 -158 q 4 -94 -11 -129 q 50 153 50 13 q 133 214 50 214 l 160 214 q 243 153 243 214 q 208 1 243 79 q 127 -126 172 -78 q 56 -174 82 -174 z "},"†":{"ha":743,"x_min":64,"x_max":679,"o":"m 292 -150 l 292 569 l 106 569 q 64 639 64 569 l 64 649 q 106 718 64 718 l 292 718 l 292 931 q 361 975 292 975 l 382 975 q 451 931 451 975 l 451 718 l 638 718 q 679 649 679 718 l 679 639 q 638 569 679 569 l 451 569 l 451 -150 q 382 -194 451 -194 l 361 -194 q 292 -150 292 -194 z "},"‡":{"ha":743,"x_min":64,"x_max":679,"o":"m 106 58 q 64 128 64 58 l 64 138 q 106 207 64 207 l 292 207 l 292 569 l 106 569 q 64 639 64 569 l 64 649 q 106 718 64 718 l 292 718 l 292 931 q 361 975 292 975 l 382 975 q 451 931 451 975 l 451 718 l 638 718 q 679 649 679 718 l 679 639 q 638 569 679 569 l 451 569 l 451 207 l 638 207 q 679 138 679 207 l 679 128 q 638 58 679 58 l 451 58 l 451 -150 q 382 -194 451 -194 l 361 -194 q 292 -150 292 -194 l 292 58 l 106 58 z "},"•":{"ha":467,"x_min":50,"x_max":418,"o":"m 364 323 q 337 296 364 323 q 233 269 310 269 q 103 323 157 269 q 50 453 50 376 q 103 583 50 529 q 233 638 157 638 q 364 583 310 638 q 418 453 418 529 q 364 323 418 376 z "},"…":{"ha":857,"x_min":33,"x_max":828,"o":"m 617 42 l 617 169 q 700 214 617 214 l 744 214 q 828 169 828 214 l 828 42 q 744 -3 828 -3 l 700 -3 q 617 42 617 -3 m 325 42 l 325 169 q 408 214 325 214 l 453 214 q 536 169 536 214 l 536 42 q 453 -3 536 -3 l 408 -3 q 325 42 325 -3 m 33 42 l 33 169 q 117 214 33 214 l 161 214 q 244 169 244 214 l 244 42 q 161 -3 244 -3 l 117 -3 q 33 42 33 -3 z "},"‰":{"ha":1442,"x_min":53,"x_max":1411,"o":"m 469 750 q 469 633 469 750 q 261 517 469 517 q 53 750 53 517 q 261 983 53 983 q 469 750 469 983 m 178 15 q 185 36 178 22 l 681 936 q 742 975 703 975 l 803 975 q 832 956 832 975 q 825 936 832 950 l 329 36 q 268 -3 307 -3 l 207 -3 q 178 15 178 -3 m 194 747 q 194 689 194 747 q 260 631 194 631 q 326 747 326 631 q 260 864 326 864 q 194 747 194 864 m 1203 -11 q 1099 -11 1203 -11 q 994 222 994 -11 q 1203 456 994 456 q 1411 222 1411 456 q 1203 -11 1411 -11 m 749 -11 q 644 -11 749 -11 q 540 222 540 -11 q 749 456 540 456 q 957 222 957 456 q 749 -11 957 -11 m 1202 336 q 1169 336 1202 336 q 1136 219 1136 336 q 1202 103 1136 103 q 1268 219 1268 103 q 1202 336 1268 336 m 748 336 q 715 336 748 336 q 682 219 682 336 q 748 103 682 103 q 814 219 814 103 q 748 336 814 336 z "},"‹":{"ha":417,"x_min":38,"x_max":356,"o":"m 60 297 q 38 358 38 324 q 60 419 38 393 l 236 632 q 275 651 254 651 q 326 628 296 651 q 356 588 356 606 q 343 553 356 569 l 190 358 l 343 164 q 356 129 356 147 q 326 88 356 111 q 276 64 297 64 q 236 85 256 64 l 60 297 z "},"›":{"ha":417,"x_min":56,"x_max":374,"o":"m 135 64 q 124 64 135 64 q 85 88 114 64 q 56 129 56 111 q 68 164 56 147 l 221 358 l 68 553 q 56 588 56 569 q 85 628 56 606 q 136 651 115 651 q 175 632 157 651 l 351 419 q 374 358 374 393 q 351 297 374 324 l 175 85 q 135 64 156 64 z "},"⁄":{"ha":367,"x_min":-124,"x_max":499,"o":"m -71 0 l -94 0 q -124 15 -124 0 q -115 36 -124 24 l 383 936 q 446 972 403 972 l 469 972 q 499 957 499 972 q 490 936 499 949 l -8 36 q -71 0 -29 0 z "},"€":{"ha":833,"x_min":0,"x_max":788,"o":"m 42 324 q 0 371 0 324 l 0 381 q 42 428 0 428 l 82 428 q 81 483 81 447 q 82 533 81 518 l 42 533 q 0 581 0 533 l 0 590 q 42 638 0 638 l 92 638 q 513 983 151 983 q 690 956 604 983 q 775 886 775 928 q 742 806 775 856 q 685 756 710 756 q 661 767 682 756 q 508 800 596 800 q 313 638 354 800 l 646 638 q 688 590 688 638 l 688 581 q 646 533 688 533 l 299 533 q 297 482 297 518 q 299 428 297 446 l 646 428 q 688 381 688 428 l 688 371 q 646 324 688 324 l 317 324 q 506 171 361 171 q 675 213 593 171 q 706 226 701 226 q 762 178 736 226 q 788 106 788 131 q 694 19 788 50 q 506 -11 600 -11 q 93 324 151 -11 l 42 324 z "},"™":{"ha":1072,"x_min":32,"x_max":1032,"o":"m 481 449 l 481 949 q 528 974 481 974 l 569 974 q 618 953 607 974 l 756 708 l 894 953 q 944 974 908 974 l 985 974 q 1032 949 1032 974 l 1032 449 q 985 424 1032 424 l 963 424 q 915 449 915 424 l 915 772 l 911 776 l 799 571 q 768 556 792 556 l 744 556 q 714 571 722 556 l 600 776 l 597 772 l 597 449 q 550 424 597 424 l 528 424 q 481 449 481 424 m 226 424 q 179 449 179 424 l 179 869 l 56 869 q 32 908 32 869 l 32 933 q 56 972 32 972 l 425 972 q 449 933 449 972 l 449 908 q 425 869 449 869 l 301 869 l 301 449 q 254 424 301 424 l 226 424 z "},"Ω":{"ha":1015,"x_min":36,"x_max":981,"o":"m 78 0 q 36 69 36 0 l 36 113 q 78 182 36 182 q 174 164 119 182 l 192 157 q 63 510 63 286 q 178 858 63 733 q 508 983 293 983 q 839 858 724 983 q 954 510 954 733 q 825 157 954 286 q 939 182 893 182 q 981 113 981 182 l 981 69 q 939 0 981 0 l 596 0 q 554 69 554 0 l 554 106 q 574 153 554 146 q 735 486 735 204 q 677 720 735 640 q 508 800 619 800 q 340 720 397 800 q 282 486 282 640 q 443 153 282 204 q 463 106 463 146 l 463 69 q 421 0 463 0 l 78 0 z "},"←":{"ha":1042,"x_min":0,"x_max":1043,"o":"m 10 340 q 0 365 0 350 q 10 390 0 381 l 324 703 q 394 732 353 732 l 514 732 q 540 724 540 732 q 526 703 540 717 l 260 440 l 999 440 q 1043 379 1043 440 l 1043 353 q 999 292 1043 292 l 258 292 l 528 26 q 542 5 542 13 q 515 -3 542 -3 l 396 -3 q 325 26 354 -3 l 10 340 z "},"↑":{"ha":735,"x_min":3,"x_max":738,"o":"m 3 392 l 3 511 q 10 538 3 538 q 32 524 18 538 l 294 257 l 294 943 q 356 988 294 988 l 382 988 q 443 943 443 988 l 443 256 l 708 525 q 730 539 722 539 q 738 513 738 539 l 738 393 q 708 322 738 351 l 394 7 q 369 -3 385 -3 q 344 7 354 -3 l 32 321 q 3 392 3 350 z "},"→":{"ha":1042,"x_min":0,"x_max":1043,"o":"m 44 292 q 0 353 0 292 l 0 379 q 44 440 0 440 l 783 440 l 517 703 q 503 724 503 717 q 529 732 503 732 l 649 732 q 719 703 690 732 l 1033 390 q 1043 365 1043 381 q 1033 340 1043 350 l 718 26 q 647 -3 689 -3 l 528 -3 q 501 5 501 -3 q 515 26 501 13 l 785 292 l 44 292 z "},"↓":{"ha":735,"x_min":0,"x_max":735,"o":"m 294 42 l 294 729 l 29 460 q 8 446 15 446 q 0 472 0 446 l 0 592 q 29 663 0 633 l 343 978 q 368 988 353 988 q 393 978 383 988 l 706 664 q 735 593 735 635 l 735 474 q 727 447 735 447 q 706 461 719 447 l 443 728 l 443 42 q 382 -3 443 -3 l 356 -3 q 294 42 294 -3 z "},"∂":{"ha":714,"x_min":29,"x_max":686,"o":"m 325 -14 q 112 66 194 -14 q 29 280 29 146 q 121 505 29 414 q 346 596 213 596 q 481 560 421 596 q 415 780 469 711 q 276 849 360 849 q 198 831 236 849 q 154 813 160 813 q 106 847 133 813 q 79 906 79 881 q 134 983 79 946 q 294 1019 189 1019 q 579 868 472 1019 q 686 480 686 717 q 591 115 686 243 q 325 -14 496 -14 m 362 422 q 331 422 362 422 q 263 379 300 422 q 226 278 226 336 q 253 189 226 219 q 325 158 281 158 q 478 379 454 158 q 362 422 424 422 z "},"∆":{"ha":983,"x_min":40,"x_max":939,"o":"m 40 49 l 40 119 q 53 181 40 154 l 390 949 q 447 986 406 986 l 532 986 q 589 949 574 986 l 926 181 q 939 119 939 154 l 939 49 q 890 0 939 0 l 89 0 q 40 49 40 0 m 251 181 l 726 181 l 496 713 l 482 713 l 251 181 z "},"∏":{"ha":1042,"x_min":22,"x_max":1021,"o":"m 176 -100 l 176 792 l 64 792 q 22 861 22 792 l 22 903 q 64 972 22 972 l 979 972 q 1021 903 1021 972 l 1021 861 q 979 792 1021 792 l 863 792 l 863 -100 q 779 -144 863 -144 l 746 -144 q 663 -100 663 -144 l 663 792 l 376 792 l 376 -100 q 293 -144 376 -144 l 260 -144 q 176 -100 176 -144 z "},"∑":{"ha":824,"x_min":28,"x_max":807,"o":"m 28 -32 q 44 18 28 -4 l 350 421 l 53 813 q 36 863 36 836 l 36 917 q 92 972 36 972 l 743 972 q 785 903 785 972 l 785 861 q 743 792 785 792 l 310 792 l 561 458 q 574 425 574 442 q 561 390 574 408 l 299 39 l 765 39 q 807 -31 807 39 l 807 -72 q 765 -142 807 -142 l 83 -142 q 28 -86 28 -142 l 28 -32 z "},"−":{"ha":778,"x_min":39,"x_max":739,"o":"m 81 239 q 39 308 39 239 l 39 318 q 81 388 39 388 l 697 388 q 739 318 739 388 l 739 308 q 697 239 739 239 l 81 239 z "},"√":{"ha":858,"x_min":35,"x_max":876,"o":"m 94 332 q 56 365 67 332 l 39 413 q 35 433 35 422 q 68 474 35 461 l 246 543 q 268 547 258 547 q 308 515 297 547 l 417 211 q 453 78 436 158 l 457 53 l 464 53 q 485 213 474 168 l 696 1088 q 775 1131 706 1131 l 815 1131 q 876 1103 876 1131 q 875 1088 876 1093 l 571 -174 q 492 -217 561 -217 l 450 -217 q 367 -175 382 -217 l 172 357 l 117 336 q 94 332 104 332 z "},"∞":{"ha":1094,"x_min":65,"x_max":1031,"o":"m 294 154 q 132 222 199 154 q 65 392 65 290 q 133 558 65 493 q 306 622 201 622 q 544 489 429 622 q 783 622 672 622 q 963 558 894 622 q 1031 392 1031 493 q 964 222 1031 290 q 801 154 897 154 q 544 290 669 154 q 416 185 472 215 q 294 154 360 154 m 776 313 q 831 335 808 313 q 854 392 854 358 q 835 447 854 426 q 783 468 815 468 q 647 386 715 468 q 776 313 714 313 m 319 313 q 451 383 375 313 q 313 468 374 468 q 261 447 281 468 q 242 392 242 426 q 264 335 242 357 q 319 313 286 313 z "},"∫":{"ha":517,"x_min":-21,"x_max":538,"o":"m 25 -65 q 47 -71 28 -65 q 83 -76 65 -76 q 154 -25 133 -76 q 175 143 175 26 q 165 497 175 260 q 156 890 156 733 q 218 1137 156 1046 q 400 1228 281 1228 q 522 1192 489 1228 q 538 1145 538 1175 q 524 1085 538 1115 q 492 1056 510 1056 q 470 1061 489 1056 q 433 1067 451 1067 q 363 1015 383 1067 q 342 845 342 964 q 351 488 342 726 q 361 119 361 250 q 299 -147 361 -56 q 117 -237 236 -237 q -6 -201 28 -237 q -21 -155 -21 -185 q -7 -95 -21 -125 q 25 -65 7 -65 z "},"≈":{"ha":760,"x_min":89,"x_max":672,"o":"m 238 399 q 223 399 238 399 q 181 391 208 399 q 140 383 154 383 q 107 407 125 383 q 89 454 89 431 q 160 528 89 490 q 286 567 231 567 q 417 538 342 567 q 518 508 492 508 q 574 519 544 508 q 620 529 603 529 q 655 501 638 529 q 672 449 672 474 q 599 375 672 410 q 471 340 525 340 q 342 369 417 340 q 238 399 268 399 m 238 125 q 223 125 238 125 q 181 117 208 125 q 140 110 154 110 q 107 133 125 110 q 89 181 89 157 q 160 255 89 217 q 286 293 231 293 q 417 264 342 293 q 518 235 492 235 q 574 245 544 235 q 620 256 603 256 q 655 228 638 256 q 672 175 672 200 q 599 101 672 136 q 471 67 525 67 q 342 96 417 67 q 238 125 268 125 z "},"≠":{"ha":778,"x_min":57,"x_max":721,"o":"m 89 24 q 100 44 89 32 l 158 119 l 99 119 q 57 189 57 119 l 57 199 q 99 268 57 268 l 274 268 l 354 371 l 99 371 q 57 440 57 371 l 57 450 q 99 519 57 519 l 471 519 l 511 569 q 606 606 542 606 l 640 606 q 694 590 694 606 q 685 571 694 586 l 644 519 l 679 519 q 721 450 721 519 l 721 440 q 679 371 721 371 l 528 371 l 447 268 l 679 268 q 721 199 721 268 l 721 189 q 679 119 721 119 l 332 119 l 272 44 q 178 8 243 8 l 143 8 q 89 24 89 8 z "},"≤":{"ha":786,"x_min":53,"x_max":715,"o":"m 53 465 l 53 492 q 92 549 53 533 l 674 772 q 693 776 686 776 q 713 718 713 776 l 713 710 q 674 626 713 642 l 268 478 l 675 329 q 714 274 714 315 l 714 238 q 694 178 714 178 q 675 183 692 178 l 92 408 q 53 465 53 424 m 53 69 l 53 79 q 94 149 53 149 l 674 149 q 715 79 715 149 l 715 69 q 674 0 715 0 l 94 0 q 53 69 53 0 z "},"≥":{"ha":786,"x_min":57,"x_max":719,"o":"m 78 178 q 58 238 58 178 l 58 274 q 97 329 58 315 l 504 478 l 99 626 q 60 710 60 642 l 60 718 q 79 776 60 776 q 99 772 86 776 l 681 549 q 719 492 719 533 l 719 465 q 681 408 719 424 l 97 183 q 78 178 81 178 m 57 69 l 57 79 q 99 149 57 149 l 678 149 q 719 79 719 149 l 719 69 q 678 0 719 0 l 99 0 q 57 69 57 0 z "},"◊":{"ha":775,"x_min":57,"x_max":721,"o":"m 65 450 q 57 485 57 469 q 65 517 57 500 l 293 951 q 378 986 311 986 l 400 986 q 485 951 467 986 l 713 517 q 721 485 721 500 q 713 450 721 469 l 490 24 q 406 -11 472 -11 l 372 -11 q 288 24 306 -11 l 65 450 m 389 183 l 532 483 l 389 779 l 246 483 l 389 183 z "},"ﬁ":{"ha":782,"x_min":24,"x_max":701,"o":"m 389 888 l 346 893 q 296 833 296 893 l 296 726 l 365 726 q 407 657 407 726 l 407 633 q 365 564 407 564 l 296 564 l 296 42 q 213 -3 296 -3 l 174 -3 q 90 42 90 -3 l 90 564 l 65 564 q 24 633 24 564 l 24 657 q 65 726 24 726 l 90 726 l 90 831 q 293 1056 90 1056 q 432 988 432 1056 q 419 928 432 969 q 389 888 407 888 m 579 846 q 496 890 496 846 l 496 1003 q 579 1047 496 1047 l 618 1047 q 701 1003 701 1047 l 701 890 q 618 846 701 846 l 579 846 m 496 42 l 496 685 q 579 729 496 729 l 618 729 q 701 685 701 729 l 701 42 q 618 -3 701 -3 l 579 -3 q 496 42 496 -3 z "},"ﬂ":{"ha":821,"x_min":24,"x_max":832,"o":"m 389 888 l 346 893 q 296 833 296 893 l 296 726 l 365 726 q 407 657 407 726 l 407 633 q 365 564 407 564 l 296 564 l 296 42 q 213 -3 296 -3 l 174 -3 q 90 42 90 -3 l 90 564 l 65 564 q 24 633 24 564 l 24 657 q 65 726 24 726 l 90 726 l 90 831 q 293 1056 90 1056 q 432 988 432 1056 q 419 928 432 969 q 389 888 407 888 m 751 151 l 789 157 q 819 116 807 157 q 832 57 832 75 q 699 -11 832 -11 q 496 214 496 -11 l 496 1003 q 579 1047 496 1047 l 618 1047 q 701 1003 701 1047 l 701 211 q 751 151 701 151 z "}}}
